<svg width="1907" height="1838" xmlns="http://www.w3.org/2000/svg" xmlns:xlink="http://www.w3.org/1999/xlink" xml:space="preserve" overflow="hidden"><g transform="translate(-1347 -889)"><g><rect x="1656" y="1483" width="260" height="260" fill="#C0504D" fill-opacity="0.501961"/><rect x="1942" y="1483" width="260" height="260" fill="#8064A2" fill-opacity="0.501961"/><rect x="2228" y="1483" width="260" height="260" fill="#8064A2" fill-opacity="0.501961"/><rect x="1656" y="1768" width="260" height="260" fill="#4F81BD" fill-opacity="0.501961"/><rect x="1942" y="1768" width="260" height="260" fill="#4F81BD" fill-opacity="0.501961"/><rect x="2228" y="1768" width="260" height="260" fill="#8064A2" fill-opacity="0.501961"/><rect x="1656" y="2053" width="260" height="260" fill="#9BBB59" fill-opacity="0.501961"/><rect x="1942" y="2053" width="260" height="260" fill="#9BBB59" fill-opacity="0.501961"/><rect x="2228" y="2053" width="260" height="260" fill="#93CDDD" fill-opacity="0.501961"/><path d="M1508.87 1093.61 1508.88 2467.68 1495.13 2467.68 1495.12 1093.61ZM1472 1131.4 1502 1079.97 1532 1131.4C1533.91 1134.68 1532.81 1138.89 1529.53 1140.8 1526.25 1142.71 1522.04 1141.61 1520.12 1138.33L1496.06 1097.08 1507.94 1097.08 1483.88 1138.33 1483.88 1138.33C1481.96 1141.61 1477.75 1142.71 1474.47 1140.8 1471.19 1138.89 1470.09 1134.68 1472 1131.4Z" fill="#000000" fill-rule="nonzero" fill-opacity="1"/><path d="M13.6065-6.875 1514.71-6.87464 1514.71 6.87536 13.6065 6.875ZM51.3984 30.001-0.0318648-5.22813e-07 51.3984-30.001C54.6781-31.9141 58.8878-30.8063 60.801-27.5266 62.7142-24.2469 61.6063-20.0372 58.3266-18.124L58.3266-18.124 17.0766 5.93848 17.0766-5.93848 58.3266 18.124C61.6063 20.0372 62.7142 24.2469 60.801 27.5266 58.8878 30.8064 54.6781 31.9142 51.3984 30.001Z" fill="#000000" fill-rule="nonzero" fill-opacity="1" transform="matrix(-1 0 0 1 3013.71 2461)"/><g><g><g><path d="M2013.81 1249.25C2011.65 1251.36 2009.08 1253 2006.25 1254.06L2006.25 1302.19C2006.25 1307.88 2010.87 1312.5 2016.56 1312.5 2022.26 1312.5 2026.87 1307.88 2026.87 1302.19L2026.87 1246.5C2032.21 1249.59 2038.96 1248.75 2043.37 1244.44L2051.62 1236.19C2044.88 1235.44 2038.27 1233.71 2032.03 1231.03Z" fill="#000000" fill-rule="nonzero" fill-opacity="1"/><path d="M2237.25 1113.81 2204.32 1080.88 2235.26 1035.88C2235.8 1035.1 2235.6 1034.03 2234.83 1033.49 2234.19 1033.05 2233.34 1033.09 2232.75 1033.58L2188.57 1068.68 2188.57 1056.41C2188.63 1055.52 2187.96 1054.75 2187.07 1054.69 2187 1054.68 2186.93 1054.68 2186.86 1054.69 2180.24 1054.76 2174.9 1060.1 2174.82 1066.72L2174.82 1068.44C2162.59 1061.36 2147.32 1063.83 2136.39 1079.47 2133.3 1084.18 2130.38 1088.68 2127.49 1092.91 2123.58 1097.16 2117.86 1099.27 2112.12 1098.58 2113.49 1101.48 2115.97 1103.69 2119 1104.7 2117.56 1106.56 2116.11 1108.35 2114.63 1110.03 2109.4 1115.48 2102.11 1118.48 2094.56 1118.28 2098.88 1124.16 2105.31 1128.14 2112.5 1129.38 2105.56 1134.23 2097.35 1136.94 2088.89 1137.19L2033.89 1137.19C2025.8 1137.09 2017.88 1139.49 2011.2 1144.06L1983.18 1144.06C1965.69 1144.06 1950.67 1154.58 1949.67 1171.56 1948.95 1183.04 1948.81 1189.33 1948.26 1194.77 1946.27 1204.08 1934.75 1207.35 1934.75 1207.35 1937.85 1209.21 1941.47 1210.02 1945.06 1209.65 1940.32 1218.93 1928.73 1226.56 1928.73 1226.56 1928.73 1226.56 1963.11 1234.98 1974.8 1203.81 1977.14 1204.18 1979.55 1203.81 1981.67 1202.74 1981.67 1202.74 1976.65 1200.16 1978.23 1188.99 1980.57 1172.66 1992.6 1172.25 1992.6 1172.25L1992.6 1226.56C1992.6 1220.87 1987.99 1216.25 1982.29 1216.25 1976.59 1216.25 1971.98 1220.87 1971.98 1226.56L1971.98 1302.19C1971.98 1307.88 1976.59 1312.5 1982.29 1312.5 1987.99 1312.5 1992.6 1307.88 1992.6 1302.19L1992.6 1246.5C1997.94 1249.59 2004.69 1248.75 2009.1 1244.44L2030.76 1222.78C2040.28 1227.47 2050.74 1229.93 2061.35 1230L2106.04 1230 2106.04 1302.19C2106.04 1307.88 2110.66 1312.5 2116.35 1312.5 2122.05 1312.5 2126.67 1307.88 2126.67 1302.19L2126.67 1230C2131.34 1229.9 2135.98 1229.09 2140.42 1227.59L2140.42 1302.19C2140.42 1307.88 2145.03 1312.5 2150.73 1312.5 2156.42 1312.5 2161.04 1307.88 2161.04 1302.19L2161.04 1211.44C2165.57 1204.74 2167.96 1196.83 2167.92 1188.75L2167.92 1187.03C2167.92 1150.08 2177.2 1123.44 2188.54 1123.44L2192.56 1127.56C2196.41 1131.4 2201.57 1133.61 2207 1133.75L2215.94 1133.75 2216.62 1134.44C2221.95 1139.85 2230.66 1139.91 2236.07 1134.59 2236.12 1134.54 2236.17 1134.49 2236.22 1134.44L2237.25 1133.41C2242.41 1127.89 2242.41 1119.32 2237.25 1113.81Z" fill="#000000" fill-rule="nonzero" fill-opacity="1"/></g></g></g><g><g><g><path d="M3197.88 2264.53C3192.38 2263.5 3186.88 2269 3185.16 2277.25 3183.44 2285.5 3186.53 2292.72 3192.03 2293.75 3197.53 2294.78 3203.03 2289.28 3204.75 2281.03 3206.47 2272.78 3203.03 2265.56 3197.88 2264.53Z" fill="#000000" fill-rule="nonzero" fill-opacity="1"/><path d="M2939.72 2329.5C2937.66 2327.09 2936.28 2324.34 2935.25 2321.25 2934.56 2319.19 2934.22 2316.78 2934.22 2314.72L2934.22 2310.94C2934.22 2266.25 2978.56 2223.97 3025.31 2223.97L3030.81 2223.97C3039.06 2223.97 3054.53 2224.31 3061.41 2224.31 3064.16 2224.31 3070.69 2224.31 3074.12 2223.97L3081.34 2222.94C3059.34 2262.81 3067.59 2318.84 3071.38 2337.75L3070 2338.09C3059 2340.5 3047.66 2341.53 3036.31 2341.53L3005.38 2341.53C2998.16 2348.06 2989.56 2353.22 2980.62 2357L2980.62 2368.69C2980.62 2378.31 2988.19 2385.88 2997.81 2385.88 3007.44 2385.88 3015 2378.31 3015 2368.69L3015 2351.84 3036.31 2351.84C3048.34 2351.84 3060.38 2350.47 3072.06 2348.06L3076.88 2347.03 3076.88 2368.69C3076.88 2378.31 3084.44 2385.88 3094.06 2385.88 3103.69 2385.88 3111.25 2378.31 3111.25 2368.69L3111.25 2336.72C3113.66 2335.69 3116.06 2334.66 3118.12 2333.62L3118.12 2368.34C3118.12 2377.97 3125.69 2385.53 3135.31 2385.53 3144.94 2385.53 3152.5 2377.97 3152.5 2368.34L3152.5 2326.06 3172.78 2325.38 3215.41 2333.62C3216.09 2333.62 3216.78 2333.62 3217.47 2333.62 3221.59 2332.59 3225.72 2330.53 3228.81 2327.44 3232.25 2324 3234.66 2317.12 3237.06 2310.25 3238.78 2305.09 3237.41 2299.59 3233.62 2295.47 3228.81 2290.31 3224.69 2284.81 3220.91 2278.97 3220.91 2261.78 3211.62 2245.62 3196.84 2237.03 3197.88 2225.69 3195.47 2214.34 3183.44 2217.78 3178.28 2219.16 3173.81 2222.59 3170.72 2226.72L3139.09 2214.34C3129.47 2210.91 3119.5 2209.19 3109.53 2209.53 3104.03 2209.53 3098.88 2209.88 3093.38 2210.56L3073.44 2213.31C3071.03 2213.66 3065.19 2213.66 3061.75 2213.66 3055.22 2213.66 3039.75 2213.31 3031.5 2213.31L3026 2213.31C2972.72 2213.31 2924.59 2259.72 2924.59 2310.59L2924.59 2314.38C2924.59 2317.47 2924.94 2320.56 2925.97 2323.66 2928.38 2331.56 2933.53 2338.09 2940.41 2342.56L2940.41 2368C2940.41 2377.62 2947.97 2385.19 2957.59 2385.19 2967.22 2385.19 2974.78 2377.62 2974.78 2368 2974.78 2368 2974.78 2368 2974.78 2368L2974.78 2351.84C3004 2340.84 3016.38 2321.59 3016.72 2307.84 3016.72 2299.59 3012.25 2279.31 2982.34 2281.03 2960.34 2282.06 2942.47 2299.25 2940.75 2321.25L2940.75 2329.5ZM3221.59 2320.22C3220.22 2321.59 3218.84 2323.66 3216.44 2323.31L3174.5 2315.41C3174.16 2315.41 3173.81 2315.41 3173.47 2315.41L3134.28 2316.44C3138.06 2310.25 3140.47 2303.38 3141.16 2296.16 3145.97 2253.19 3109.19 2248.72 3115.03 2220.53 3121.91 2220.88 3128.78 2222.25 3135.31 2224.66L3165.91 2236.69C3164.53 2241.16 3163.84 2245.62 3163.84 2250.09 3163.84 2252.5 3165.56 2254.56 3167.97 2254.91 3168.66 2254.91 3169.69 2254.91 3170.38 2254.56 3175.88 2251.47 3181.72 2249.75 3188.25 2249.75 3189.97 2249.75 3191.69 2249.06 3193.41 2248.03 3204.41 2255.59 3211.28 2267.97 3210.94 2281.38 3210.94 2285.5 3226.75 2303.72 3226.75 2303.72 3229.84 2306.47 3224.34 2317.12 3221.59 2320.22Z" fill="#000000" fill-rule="nonzero" fill-opacity="1"/></g></g></g><g><g><g><path d="M2828.92 2434.47 2828.92 2406.97 2869.31 2410.41 2842.36 2368.95 2858.86 2373.39 2839.44 2343.76 2851.43 2345.27 2822.9 2303.78 2808.26 2325.16 2779.11 2280.47 2797.74 2282.81 2753.5 2217.46 2709.26 2282.77 2727.89 2280.44 2697.61 2326.91 2723.22 2320.04 2681.31 2385.14 2743.19 2373.49 2743.19 2415.81C2722.84 2416.25 2703.86 2420.69 2689.05 2430.18 2702.8 2437.32 2717.34 2449.6 2730.61 2470.19L2877.25 2470.19C2866.18 2456.13 2848.96 2443.82 2828.92 2434.47ZM2807.4 2326.4 2797.36 2341.07 2783.61 2319.93ZM2796.33 2379.92 2776.5 2410.41 2815.38 2406.97 2815.38 2428.94C2797.71 2422.26 2779.2 2418.06 2760.38 2416.46L2760.38 2373.49Z" fill="#000000" fill-rule="nonzero" fill-opacity="1"/><path d="M2671.65 2433.96 2671 2433.96 2671 2422.06 2688.19 2425.5 2675.61 2402.33 2684.75 2404.88 2673.92 2388.41 2680.59 2389.23 2664.12 2367.06 2649 2389.17 2655.63 2388.34 2649.79 2397.24 2636.9 2376.62 2651.06 2380.43 2634.32 2354.96 2644.63 2356.23 2620.16 2320.52 2595.68 2356.17 2606 2354.89 2589.26 2380.37 2603.42 2376.55 2580.25 2412.23 2612.56 2408.31 2612.56 2442.69C2598.24 2449.23 2585.38 2458.58 2574.75 2470.19L2718.16 2470.19C2702.59 2448.36 2685.75 2438.32 2671.65 2433.96ZM2622.88 2438.67 2622.88 2408.31 2649.86 2411.41 2643.5 2425.5 2660.69 2422.06 2660.69 2433.1C2647.86 2432.74 2635.06 2434.63 2622.88 2438.67Z" fill="#000000" fill-rule="nonzero" fill-opacity="1"/></g></g></g><g><g><g><path d="M1742 1087.37C1669.81 1087.37 1611.38 1145.81 1611.38 1218 1611.38 1290.19 1669.81 1348.62 1742 1348.62 1814.19 1348.62 1872.63 1290.19 1872.63 1218 1872.63 1145.81 1814.19 1087.37 1742 1087.37ZM1742 1334.87C1677.72 1334.87 1625.13 1282.28 1625.13 1218 1625.13 1216.28 1625.13 1214.91 1625.13 1213.19L1629.94 1207C1631.31 1205.28 1633.38 1204.25 1635.44 1204.25L1647.13 1204.25C1648.5 1204.25 1649.53 1204.94 1650.22 1206.31L1662.59 1231.06C1662.94 1231.75 1663.28 1232.09 1663.63 1232.44L1667.75 1235.19C1670.16 1236.56 1673.25 1235.19 1673.25 1232.44L1673.25 1221.09C1673.25 1219.37 1673.94 1217.66 1675.31 1216.28L1684.25 1207.34C1685.63 1205.97 1688.03 1205.97 1689.41 1207.69L1699.72 1220.75C1700.41 1221.44 1701.44 1222.12 1702.47 1222.12L1704.88 1222.12C1706.59 1222.12 1708.31 1222.81 1709.69 1224.19L1712.44 1226.94C1713.81 1228.31 1715.53 1229 1717.25 1229L1717.94 1229C1720 1229 1721.38 1227.62 1721.38 1225.56L1721.38 1217.31C1721.38 1215.94 1720.69 1214.91 1719.31 1214.22L1716.22 1212.84C1715.19 1212.16 1714.16 1211.12 1714.16 1209.75L1714.16 1204.25C1714.16 1202.19 1715.53 1200.81 1717.59 1200.81L1726.19 1200.81C1727.22 1200.81 1728.25 1200.12 1728.94 1199.44L1733.75 1192.22C1734.44 1191.19 1734.78 1189.81 1734.78 1188.44L1734.78 1181.22C1734.78 1180.53 1734.78 1180.19 1734.44 1179.5L1732.03 1169.19C1731.69 1167.47 1732.38 1166.09 1733.75 1165.41L1735.47 1164.72C1737.19 1164.03 1738.91 1164.37 1739.94 1165.75 1739.94 1165.75 1743.03 1172.28 1745.09 1173.66 1745.78 1174 1747.84 1174.34 1748.53 1173.66 1750.59 1171.59 1749.91 1164.72 1749.22 1160.25 1748.88 1157.84 1749.91 1155.44 1751.97 1153.72L1760.91 1146.84C1761.94 1146.16 1762.28 1145.12 1762.28 1144.09L1762.28 1142.37C1762.28 1140.31 1763.66 1138.94 1765.72 1138.94 1767.78 1138.94 1769.16 1137.56 1769.16 1135.5L1769.16 1134.81C1769.16 1133.09 1768.13 1131.72 1766.41 1131.37L1760.22 1130C1757.81 1129.31 1756.78 1126.56 1758.16 1124.5L1762.28 1119C1764.34 1116.25 1767.44 1114.87 1770.53 1114.87L1781.19 1114.87C1783.94 1114.87 1786.34 1113.16 1787.38 1110.75 1829.66 1128.62 1858.88 1169.87 1858.88 1218 1858.88 1282.28 1806.28 1334.87 1742 1334.87Z" fill="#000000" fill-rule="nonzero" fill-opacity="1"/><path d="M1800.78 1288.12C1800.44 1287.44 1800.09 1286.41 1799.41 1285.72L1786 1265.44C1784.28 1262.69 1779.81 1263.72 1779.81 1267.16L1779.81 1269.56C1779.81 1271.62 1778.44 1273 1776.38 1273L1775 1273C1773.63 1273 1772.59 1272.31 1771.91 1270.94L1769.16 1265.09C1767.78 1262.69 1764.34 1262.69 1762.97 1265.09L1760.22 1268.19C1759.53 1268.87 1758.5 1269.22 1757.81 1269.22L1755.41 1269.22C1753.69 1269.22 1751.97 1269.91 1750.59 1271.28L1736.84 1282.28C1734.09 1284.69 1733.41 1288.81 1735.47 1291.56L1744.41 1306.34C1746.81 1310.12 1751.97 1310.81 1755.06 1307.72L1761.59 1301.19C1764 1298.78 1768.13 1298.44 1770.88 1300.84L1782.22 1310.12C1782.91 1310.47 1783.59 1310.81 1784.28 1310.81L1793.56 1310.81C1795.63 1310.81 1797 1309.44 1797 1307.37L1797 1302.56C1797 1301.19 1797.69 1300.16 1799.06 1299.47L1801.47 1298.44C1802.84 1297.75 1803.88 1296.03 1803.19 1294.31L1800.78 1288.12Z" fill="#000000" fill-rule="nonzero" fill-opacity="1"/><path d="M1762.63 1242.06 1771.22 1253.41C1772.25 1254.78 1773.97 1255.12 1775.34 1254.44L1779.81 1252.37 1785.66 1254.44C1787.72 1255.12 1790.13 1253.41 1790.13 1251.34 1790.13 1249.97 1789.44 1248.94 1788.41 1248.25L1773.63 1239.31C1773.28 1238.62 1772.59 1238.62 1771.91 1238.62L1762.63 1238.62 1762.63 1242.06Z" fill="#000000" fill-rule="nonzero" fill-opacity="1"/><path d="M1736.16 1244.81 1738.22 1237.25C1738.56 1236.22 1738.22 1234.84 1737.19 1234.16 1736.16 1233.12 1734.09 1232.78 1732.72 1233.81L1725.84 1238.97C1723.78 1240.34 1724.13 1243.78 1726.53 1244.81L1731.34 1247.22C1733.41 1247.91 1735.47 1246.87 1736.16 1244.81Z" fill="#000000" fill-rule="nonzero" fill-opacity="1"/><path d="M1703.16 1236.91C1701.78 1235.87 1700.06 1236.22 1698.69 1237.25L1697.31 1238.62 1717.59 1255.47C1717.94 1255.81 1718.28 1255.81 1718.63 1256.16L1726.19 1258.56C1727.56 1258.91 1728.94 1258.56 1729.63 1257.87L1731.69 1255.81C1717.25 1251.69 1703.16 1236.91 1703.16 1236.91Z" fill="#000000" fill-rule="nonzero" fill-opacity="1"/><path d="M1752.31 1183.62C1761.59 1177.44 1772.25 1170.22 1769.5 1159.56 1769.16 1158.87 1766.41 1158.87 1766.06 1159.56 1764.69 1165.75 1763.31 1170.91 1748.88 1180.19 1748.19 1180.87 1750.94 1184.31 1752.31 1183.62Z" fill="#000000" fill-rule="nonzero" fill-opacity="1"/></g></g></g><text fill="#000000" fill-opacity="1" font-family="Calibri,Calibri_MSFontService,sans-serif" font-style="italic" font-variant="normal" font-weight="700" font-stretch="normal" font-size="110" text-anchor="start" direction="ltr" writing-mode="lr-tb" unicode-bidi="normal" text-decoration="none" transform="matrix(1 0 0 1 2660.88 2627)">Importance</text><text fill="#000000" fill-opacity="1" font-family="Calibri,Calibri_MSFontService,sans-serif" font-style="italic" font-variant="normal" font-weight="700" font-stretch="normal" font-size="110" text-anchor="start" direction="ltr" writing-mode="lr-tb" unicode-bidi="normal" text-decoration="none" transform="matrix(1 0 0 1 1416.93 1026)">Fun</text><path d="M1993 1929.5C1993 1911.55 2007.33 1897 2025 1897 2042.67 1897 2057 1911.55 2057 1929.5 2057 1947.45 2042.67 1962 2025 1962 2007.33 1962 1993 1947.45 1993 1929.5Z" fill="#000000" fill-rule="evenodd" fill-opacity="1"/><path d="M2082 1929.5C2082 1911.55 2096.55 1897 2114.5 1897 2132.45 1897 2147 1911.55 2147 1929.5 2147 1947.45 2132.45 1962 2114.5 1962 2096.55 1962 2082 1947.45 2082 1929.5Z" fill="#000000" fill-rule="evenodd" fill-opacity="1"/><path d="M2083 2180.5C2083 2162.55 2097.55 2148 2115.5 2148 2133.45 2148 2148 2162.55 2148 2180.5 2148 2198.45 2133.45 2213 2115.5 2213 2097.55 2213 2083 2198.45 2083 2180.5Z" fill="#000000" fill-rule="evenodd" fill-opacity="1"/><path d="M2325 1613.5C2325 1595.55 2339.55 1581 2357.5 1581 2375.45 1581 2390 1595.55 2390 1613.5 2390 1631.45 2375.45 1646 2357.5 1646 2339.55 1646 2325 1631.45 2325 1613.5Z" fill="#000000" fill-rule="evenodd" fill-opacity="1"/><path d="M1743 1894.5C1743 1876.55 1757.55 1862 1775.5 1862 1793.45 1862 1808 1876.55 1808 1894.5 1808 1912.45 1793.45 1927 1775.5 1927 1757.55 1927 1743 1912.45 1743 1894.5Z" fill="#000000" fill-rule="evenodd" fill-opacity="1"/><path d="M2033 1854.5C2033 1836.55 2047.55 1822 2065.5 1822 2083.45 1822 2098 1836.55 2098 1854.5 2098 1872.45 2083.45 1887 2065.5 1887 2047.55 1887 2033 1872.45 2033 1854.5Z" fill="#000000" fill-rule="evenodd" fill-opacity="1"/><path d="M1989 2180.5C1989 2162.55 2003.55 2148 2021.5 2148 2039.45 2148 2054 2162.55 2054 2180.5 2054 2198.45 2039.45 2213 2021.5 2213 2003.55 2213 1989 2198.45 1989 2180.5Z" fill="#000000" fill-rule="evenodd" fill-opacity="1"/><text fill="#000000" fill-opacity="1" font-family="Cambria Math,Cambria Math_MSFontService,sans-serif" font-style="normal" font-variant="normal" font-weight="400" font-stretch="normal" font-size="165" text-anchor="start" direction="ltr" writing-mode="lr-tb" unicode-bidi="normal" text-decoration="none" transform="matrix(1 0 0 1 2306.08 2257)">ğ›´</text><text fill="#000000" fill-opacity="1" font-family="Cambria Math,Cambria Math_MSFontService,sans-serif" font-style="normal" font-variant="normal" font-weight="400" font-stretch="normal" font-size="165" text-anchor="start" direction="ltr" writing-mode="lr-tb" unicode-bidi="normal" text-decoration="none" transform="matrix(1 0 0 1 1717.85 1666)">âˆ</text></g></g></svg>