<svg width="1815" height="1655" xmlns="http://www.w3.org/2000/svg" xmlns:xlink="http://www.w3.org/1999/xlink" xml:space="preserve" overflow="hidden"><g transform="translate(-1265 -1012)"><g><rect x="1661" y="1524" width="260" height="260" fill="#C0504D" fill-opacity="0.301961"/><rect x="1947" y="1524" width="260" height="260" fill="#8064A2" fill-opacity="0.301961"/><rect x="2233" y="1524" width="260" height="260" fill="#8064A2" fill-opacity="0.301961"/><rect x="1661" y="1809" width="260" height="259" fill="#4F81BD" fill-opacity="0.301961"/><rect x="1947" y="1809" width="260" height="259" fill="#4F81BD" fill-opacity="0.301961"/><rect x="2233" y="1809" width="260" height="259" fill="#8064A2" fill-opacity="0.301961"/><rect x="1661" y="2093" width="260" height="260" fill="#9BBB59" fill-opacity="0.301961"/><rect x="1947" y="2093" width="260" height="260" fill="#9BBB59" fill-opacity="0.301961"/><rect x="2233" y="2093" width="260" height="260" fill="#93CDDD" fill-opacity="0.301961"/><path d="M1508.87 1093.61 1508.88 2467.68 1495.13 2467.68 1495.12 1093.61ZM1472 1131.4 1502 1079.97 1532 1131.4C1533.91 1134.68 1532.81 1138.89 1529.53 1140.8 1526.25 1142.71 1522.04 1141.61 1520.12 1138.33L1496.06 1097.08 1507.94 1097.08 1483.88 1138.33 1483.88 1138.33C1481.96 1141.61 1477.75 1142.71 1474.47 1140.8 1471.19 1138.89 1470.09 1134.68 1472 1131.4Z" fill="#000000" fill-rule="nonzero" fill-opacity="1"/><path d="M13.6065-6.875 1514.71-6.87464 1514.71 6.87536 13.6065 6.875ZM51.3984 30.001-0.0318648-5.22813e-07 51.3984-30.001C54.6781-31.9141 58.8878-30.8063 60.801-27.5266 62.7142-24.2469 61.6063-20.0372 58.3266-18.124L58.3266-18.124 17.0766 5.93848 17.0766-5.93848 58.3266 18.124C61.6063 20.0372 62.7142 24.2469 60.801 27.5266 58.8878 30.8064 54.6781 31.9142 51.3984 30.001Z" fill="#000000" fill-rule="nonzero" fill-opacity="1" transform="matrix(-1 0 0 1 3013.71 2461)"/><g><g><g><path d="M2093.81 1338.25C2091.65 1340.36 2089.08 1342 2086.25 1343.06L2086.25 1391.19C2086.25 1396.88 2090.87 1401.5 2096.56 1401.5 2102.26 1401.5 2106.88 1396.88 2106.88 1391.19L2106.88 1335.5C2112.21 1338.59 2118.96 1337.75 2123.38 1333.44L2131.62 1325.19C2124.88 1324.44 2118.27 1322.71 2112.03 1320.03Z" fill="#000000" fill-rule="nonzero" fill-opacity="1"/><path d="M2317.25 1202.81 2284.32 1169.88 2315.26 1124.88C2315.8 1124.1 2315.61 1123.03 2314.83 1122.49 2314.19 1122.05 2313.34 1122.09 2312.75 1122.58L2268.57 1157.68 2268.57 1145.41C2268.63 1144.52 2267.96 1143.75 2267.07 1143.69 2267 1143.68 2266.93 1143.68 2266.86 1143.69 2260.24 1143.76 2254.9 1149.1 2254.82 1155.72L2254.82 1157.44C2242.59 1150.36 2227.32 1152.83 2216.39 1168.47 2213.3 1173.18 2210.38 1177.68 2207.49 1181.91 2203.58 1186.16 2197.86 1188.27 2192.12 1187.58 2193.49 1190.48 2195.97 1192.69 2199 1193.7 2197.56 1195.56 2196.11 1197.35 2194.63 1199.03 2189.4 1204.48 2182.11 1207.48 2174.56 1207.28 2178.88 1213.16 2185.31 1217.14 2192.5 1218.38 2185.56 1223.23 2177.35 1225.94 2168.89 1226.19L2113.89 1226.19C2105.8 1226.09 2097.88 1228.49 2091.2 1233.06L2063.18 1233.06C2045.69 1233.06 2030.67 1243.58 2029.67 1260.56 2028.95 1272.04 2028.81 1278.33 2028.26 1283.77 2026.27 1293.08 2014.75 1296.35 2014.75 1296.35 2017.85 1298.21 2021.47 1299.02 2025.06 1298.65 2020.32 1307.93 2008.73 1315.56 2008.73 1315.56 2008.73 1315.56 2043.11 1323.98 2054.8 1292.81 2057.14 1293.18 2059.55 1292.81 2061.67 1291.74 2061.67 1291.74 2056.65 1289.16 2058.23 1277.99 2060.57 1261.66 2072.6 1261.25 2072.6 1261.25L2072.6 1315.56C2072.6 1309.87 2067.99 1305.25 2062.29 1305.25 2056.59 1305.25 2051.98 1309.87 2051.98 1315.56L2051.98 1391.19C2051.98 1396.88 2056.59 1401.5 2062.29 1401.5 2067.99 1401.5 2072.6 1396.88 2072.6 1391.19L2072.6 1335.5C2077.94 1338.59 2084.69 1337.75 2089.1 1333.44L2110.76 1311.78C2120.28 1316.47 2130.74 1318.93 2141.35 1319L2186.04 1319 2186.04 1391.19C2186.04 1396.88 2190.66 1401.5 2196.35 1401.5 2202.05 1401.5 2206.67 1396.88 2206.67 1391.19L2206.67 1319C2211.34 1318.9 2215.98 1318.09 2220.42 1316.59L2220.42 1391.19C2220.42 1396.88 2225.03 1401.5 2230.73 1401.5 2236.42 1401.5 2241.04 1396.88 2241.04 1391.19L2241.04 1300.44C2245.57 1293.74 2247.96 1285.83 2247.92 1277.75L2247.92 1276.03C2247.92 1239.08 2257.2 1212.44 2268.54 1212.44L2272.56 1216.56C2276.41 1220.4 2281.57 1222.61 2287 1222.75L2295.94 1222.75 2296.62 1223.44C2301.95 1228.85 2310.66 1228.91 2316.07 1223.59 2316.12 1223.54 2316.17 1223.49 2316.22 1223.44L2317.25 1222.41C2322.41 1216.89 2322.41 1208.32 2317.25 1202.81Z" fill="#000000" fill-rule="nonzero" fill-opacity="1"/></g></g></g><g><g><g><path d="M2896.88 1936.53C2891.38 1935.5 2885.88 1941 2884.16 1949.25 2882.44 1957.5 2885.53 1964.72 2891.03 1965.75 2896.53 1966.78 2902.03 1961.28 2903.75 1953.03 2905.47 1944.78 2902.03 1937.56 2896.88 1936.53Z" fill="#000000" fill-rule="nonzero" fill-opacity="1"/><path d="M2638.72 2001.5C2636.66 1999.09 2635.28 1996.34 2634.25 1993.25 2633.56 1991.19 2633.22 1988.78 2633.22 1986.72L2633.22 1982.94C2633.22 1938.25 2677.56 1895.97 2724.31 1895.97L2729.81 1895.97C2738.06 1895.97 2753.53 1896.31 2760.41 1896.31 2763.16 1896.31 2769.69 1896.31 2773.12 1895.97L2780.34 1894.94C2758.34 1934.81 2766.59 1990.84 2770.38 2009.75L2769 2010.09C2758 2012.5 2746.66 2013.53 2735.31 2013.53L2704.38 2013.53C2697.16 2020.06 2688.56 2025.22 2679.62 2029L2679.62 2040.69C2679.62 2050.31 2687.19 2057.88 2696.81 2057.88 2706.44 2057.88 2714 2050.31 2714 2040.69L2714 2023.84 2735.31 2023.84C2747.34 2023.84 2759.38 2022.47 2771.06 2020.06L2775.88 2019.03 2775.88 2040.69C2775.88 2050.31 2783.44 2057.88 2793.06 2057.88 2802.69 2057.88 2810.25 2050.31 2810.25 2040.69L2810.25 2008.72C2812.66 2007.69 2815.06 2006.66 2817.12 2005.63L2817.12 2040.34C2817.12 2049.97 2824.69 2057.53 2834.31 2057.53 2843.94 2057.53 2851.5 2049.97 2851.5 2040.34L2851.5 1998.06 2871.78 1997.38 2914.41 2005.63C2915.09 2005.63 2915.78 2005.63 2916.47 2005.63 2920.59 2004.59 2924.72 2002.53 2927.81 1999.44 2931.25 1996 2933.66 1989.13 2936.06 1982.25 2937.78 1977.09 2936.41 1971.59 2932.62 1967.47 2927.81 1962.31 2923.69 1956.81 2919.91 1950.97 2919.91 1933.78 2910.62 1917.63 2895.84 1909.03 2896.88 1897.69 2894.47 1886.34 2882.44 1889.78 2877.28 1891.16 2872.81 1894.59 2869.72 1898.72L2838.09 1886.34C2828.47 1882.91 2818.5 1881.19 2808.53 1881.53 2803.03 1881.53 2797.88 1881.88 2792.38 1882.56L2772.44 1885.31C2770.03 1885.66 2764.19 1885.66 2760.75 1885.66 2754.22 1885.66 2738.75 1885.31 2730.5 1885.31L2725 1885.31C2671.72 1885.31 2623.59 1931.72 2623.59 1982.59L2623.59 1986.38C2623.59 1989.47 2623.94 1992.56 2624.97 1995.66 2627.38 2003.56 2632.53 2010.09 2639.41 2014.56L2639.41 2040C2639.41 2049.62 2646.97 2057.19 2656.59 2057.19 2666.22 2057.19 2673.78 2049.62 2673.78 2040 2673.78 2040 2673.78 2040 2673.78 2040L2673.78 2023.84C2703 2012.84 2715.38 1993.59 2715.72 1979.84 2715.72 1971.59 2711.25 1951.31 2681.34 1953.03 2659.34 1954.06 2641.47 1971.25 2639.75 1993.25L2639.75 2001.5ZM2920.59 1992.22C2919.22 1993.59 2917.84 1995.66 2915.44 1995.31L2873.5 1987.41C2873.16 1987.41 2872.81 1987.41 2872.47 1987.41L2833.28 1988.44C2837.06 1982.25 2839.47 1975.38 2840.16 1968.16 2844.97 1925.19 2808.19 1920.72 2814.03 1892.53 2820.91 1892.88 2827.78 1894.25 2834.31 1896.66L2864.91 1908.69C2863.53 1913.16 2862.84 1917.63 2862.84 1922.09 2862.84 1924.5 2864.56 1926.56 2866.97 1926.91 2867.66 1926.91 2868.69 1926.91 2869.38 1926.56 2874.88 1923.47 2880.72 1921.75 2887.25 1921.75 2888.97 1921.75 2890.69 1921.06 2892.41 1920.03 2903.41 1927.59 2910.28 1939.97 2909.94 1953.38 2909.94 1957.5 2925.75 1975.72 2925.75 1975.72 2928.84 1978.47 2923.34 1989.13 2920.59 1992.22Z" fill="#000000" fill-rule="nonzero" fill-opacity="1"/></g></g></g><g><g><g><path d="M1904.92 1377.47 1904.92 1349.97 1945.31 1353.41 1918.36 1311.95 1934.86 1316.39 1915.44 1286.76 1927.43 1288.27 1898.9 1246.78 1884.26 1268.16 1855.11 1223.47 1873.74 1225.81 1829.5 1160.46 1785.26 1225.78 1803.89 1223.44 1773.61 1269.91 1799.22 1263.04 1757.31 1328.14 1819.19 1316.49 1819.19 1358.81C1798.84 1359.25 1779.86 1363.69 1765.05 1373.18 1778.8 1380.32 1793.34 1392.6 1806.61 1413.19L1953.25 1413.19C1942.18 1399.13 1924.96 1386.82 1904.92 1377.47ZM1883.4 1269.4 1873.36 1284.07 1859.61 1262.93ZM1872.33 1322.92 1852.5 1353.41 1891.37 1349.97 1891.37 1371.94C1873.71 1365.26 1855.2 1361.06 1836.37 1359.46L1836.37 1316.49Z" fill="#000000" fill-rule="nonzero" fill-opacity="1"/><path d="M1747.65 1376.96 1747 1376.96 1747 1365.06 1764.19 1368.5 1751.61 1345.33 1760.75 1347.88 1749.92 1331.41 1756.59 1332.23 1740.12 1310.06 1725 1332.17 1731.63 1331.34 1725.79 1340.24 1712.9 1319.62 1727.06 1323.43 1710.32 1297.96 1720.63 1299.23 1696.16 1263.52 1671.68 1299.17 1682 1297.89 1665.26 1323.37 1679.42 1319.55 1656.25 1355.23 1688.56 1351.31 1688.56 1385.69C1674.24 1392.23 1661.38 1401.58 1650.75 1413.19L1794.16 1413.19C1778.59 1391.36 1761.75 1381.32 1747.65 1376.96ZM1698.87 1381.67 1698.87 1351.31 1725.86 1354.41 1719.5 1368.5 1736.69 1365.06 1736.69 1376.1C1723.86 1375.74 1711.06 1377.63 1698.87 1381.67Z" fill="#000000" fill-rule="nonzero" fill-opacity="1"/></g></g></g><g><g><g><path d="M2766 2116.38C2693.81 2116.38 2635.38 2174.81 2635.38 2247 2635.38 2319.19 2693.81 2377.62 2766 2377.62 2838.19 2377.62 2896.63 2319.19 2896.63 2247 2896.63 2174.81 2838.19 2116.38 2766 2116.38ZM2766 2363.88C2701.72 2363.88 2649.13 2311.28 2649.13 2247 2649.13 2245.28 2649.13 2243.91 2649.13 2242.19L2653.94 2236C2655.31 2234.28 2657.38 2233.25 2659.44 2233.25L2671.13 2233.25C2672.5 2233.25 2673.53 2233.94 2674.22 2235.31L2686.59 2260.06C2686.94 2260.75 2687.28 2261.09 2687.63 2261.44L2691.75 2264.19C2694.16 2265.56 2697.25 2264.19 2697.25 2261.44L2697.25 2250.09C2697.25 2248.38 2697.94 2246.66 2699.31 2245.28L2708.25 2236.34C2709.63 2234.97 2712.03 2234.97 2713.41 2236.69L2723.72 2249.75C2724.41 2250.44 2725.44 2251.12 2726.47 2251.12L2728.88 2251.12C2730.59 2251.12 2732.31 2251.81 2733.69 2253.19L2736.44 2255.94C2737.81 2257.31 2739.53 2258 2741.25 2258L2741.94 2258C2744 2258 2745.38 2256.62 2745.38 2254.56L2745.38 2246.31C2745.38 2244.94 2744.69 2243.91 2743.31 2243.22L2740.22 2241.84C2739.19 2241.16 2738.16 2240.12 2738.16 2238.75L2738.16 2233.25C2738.16 2231.19 2739.53 2229.81 2741.59 2229.81L2750.19 2229.81C2751.22 2229.81 2752.25 2229.12 2752.94 2228.44L2757.75 2221.22C2758.44 2220.19 2758.78 2218.81 2758.78 2217.44L2758.78 2210.22C2758.78 2209.53 2758.78 2209.19 2758.44 2208.5L2756.03 2198.19C2755.69 2196.47 2756.38 2195.09 2757.75 2194.41L2759.47 2193.72C2761.19 2193.03 2762.91 2193.38 2763.94 2194.75 2763.94 2194.75 2767.03 2201.28 2769.09 2202.66 2769.78 2203 2771.84 2203.34 2772.53 2202.66 2774.59 2200.59 2773.91 2193.72 2773.22 2189.25 2772.88 2186.84 2773.91 2184.44 2775.97 2182.72L2784.91 2175.84C2785.94 2175.16 2786.28 2174.12 2786.28 2173.09L2786.28 2171.38C2786.28 2169.31 2787.66 2167.94 2789.72 2167.94 2791.78 2167.94 2793.16 2166.56 2793.16 2164.5L2793.16 2163.81C2793.16 2162.09 2792.13 2160.72 2790.41 2160.38L2784.22 2159C2781.81 2158.31 2780.78 2155.56 2782.16 2153.5L2786.28 2148C2788.34 2145.25 2791.44 2143.88 2794.53 2143.88L2805.19 2143.88C2807.94 2143.88 2810.34 2142.16 2811.38 2139.75 2853.66 2157.62 2882.88 2198.88 2882.88 2247 2882.88 2311.28 2830.28 2363.88 2766 2363.88Z" fill="#000000" fill-rule="nonzero" fill-opacity="1"/><path d="M2824.78 2317.12C2824.44 2316.44 2824.09 2315.41 2823.41 2314.72L2810 2294.44C2808.28 2291.69 2803.81 2292.72 2803.81 2296.16L2803.81 2298.56C2803.81 2300.62 2802.44 2302 2800.38 2302L2799 2302C2797.63 2302 2796.59 2301.31 2795.91 2299.94L2793.16 2294.09C2791.78 2291.69 2788.34 2291.69 2786.97 2294.09L2784.22 2297.19C2783.53 2297.88 2782.5 2298.22 2781.81 2298.22L2779.41 2298.22C2777.69 2298.22 2775.97 2298.91 2774.59 2300.28L2760.84 2311.28C2758.09 2313.69 2757.41 2317.81 2759.47 2320.56L2768.41 2335.34C2770.81 2339.12 2775.97 2339.81 2779.06 2336.72L2785.59 2330.19C2788 2327.78 2792.13 2327.44 2794.88 2329.84L2806.22 2339.12C2806.91 2339.47 2807.59 2339.81 2808.28 2339.81L2817.56 2339.81C2819.63 2339.81 2821 2338.44 2821 2336.38L2821 2331.56C2821 2330.19 2821.69 2329.16 2823.06 2328.47L2825.47 2327.44C2826.84 2326.75 2827.88 2325.03 2827.19 2323.31L2824.78 2317.12Z" fill="#000000" fill-rule="nonzero" fill-opacity="1"/><path d="M2786.63 2271.06 2795.22 2282.41C2796.25 2283.78 2797.97 2284.12 2799.34 2283.44L2803.81 2281.38 2809.66 2283.44C2811.72 2284.12 2814.13 2282.41 2814.13 2280.34 2814.13 2278.97 2813.44 2277.94 2812.41 2277.25L2797.63 2268.31C2797.28 2267.62 2796.59 2267.62 2795.91 2267.62L2786.63 2267.62 2786.63 2271.06Z" fill="#000000" fill-rule="nonzero" fill-opacity="1"/><path d="M2760.16 2273.81 2762.22 2266.25C2762.56 2265.22 2762.22 2263.84 2761.19 2263.16 2760.16 2262.12 2758.09 2261.78 2756.72 2262.81L2749.84 2267.97C2747.78 2269.34 2748.13 2272.78 2750.53 2273.81L2755.34 2276.22C2757.41 2276.91 2759.47 2275.88 2760.16 2273.81Z" fill="#000000" fill-rule="nonzero" fill-opacity="1"/><path d="M2727.16 2265.91C2725.78 2264.88 2724.06 2265.22 2722.69 2266.25L2721.31 2267.62 2741.59 2284.47C2741.94 2284.81 2742.28 2284.81 2742.63 2285.16L2750.19 2287.56C2751.56 2287.91 2752.94 2287.56 2753.63 2286.88L2755.69 2284.81C2741.25 2280.69 2727.16 2265.91 2727.16 2265.91Z" fill="#000000" fill-rule="nonzero" fill-opacity="1"/><path d="M2776.31 2212.62C2785.59 2206.44 2796.25 2199.22 2793.5 2188.56 2793.16 2187.88 2790.41 2187.88 2790.06 2188.56 2788.69 2194.75 2787.31 2199.91 2772.88 2209.19 2772.19 2209.88 2774.94 2213.31 2776.31 2212.62Z" fill="#000000" fill-rule="nonzero" fill-opacity="1"/></g></g></g><text fill="#000000" fill-opacity="1" font-family="Calibri,Calibri_MSFontService,sans-serif" font-style="italic" font-variant="normal" font-weight="700" font-stretch="normal" font-size="92" text-anchor="start" direction="ltr" writing-mode="lr-tb" unicode-bidi="normal" text-decoration="none" transform="matrix(1 0 0 1 2684.66 2587)">Impact</text><text fill="#000000" fill-opacity="1" font-family="Calibri,Calibri_MSFontService,sans-serif" font-style="italic" font-variant="normal" font-weight="700" font-stretch="normal" font-size="92" text-anchor="start" direction="ltr" writing-mode="lr-tb" unicode-bidi="normal" text-decoration="none" transform="matrix(1 0 0 1 1324.61 1231)">Fun</text><path d="M1998 1970C1998 1952.33 2012.55 1938 2030.5 1938 2048.45 1938 2063 1952.33 2063 1970 2063 1987.67 2048.45 2002 2030.5 2002 2012.55 2002 1998 1987.67 1998 1970Z" fill="#000000" fill-rule="evenodd" fill-opacity="1"/><path d="M2087 1970C2087 1952.33 2101.55 1938 2119.5 1938 2137.45 1938 2152 1952.33 2152 1970 2152 1987.67 2137.45 2002 2119.5 2002 2101.55 2002 2087 1987.67 2087 1970Z" fill="#000000" fill-rule="evenodd" fill-opacity="1"/><path d="M2088 2221.5C2088 2203.55 2102.55 2189 2120.5 2189 2138.45 2189 2153 2203.55 2153 2221.5 2153 2239.45 2138.45 2254 2120.5 2254 2102.55 2254 2088 2239.45 2088 2221.5Z" fill="#000000" fill-rule="evenodd" fill-opacity="1"/><path d="M2330 1653.5C2330 1635.55 2344.55 1621 2362.5 1621 2380.45 1621 2395 1635.55 2395 1653.5 2395 1671.45 2380.45 1686 2362.5 1686 2344.55 1686 2330 1671.45 2330 1653.5Z" fill="#000000" fill-rule="evenodd" fill-opacity="1"/><path d="M1748 1935.5C1748 1917.55 1762.55 1903 1780.5 1903 1798.45 1903 1813 1917.55 1813 1935.5 1813 1953.45 1798.45 1968 1780.5 1968 1762.55 1968 1748 1953.45 1748 1935.5Z" fill="#000000" fill-rule="evenodd" fill-opacity="1"/><path d="M2038 1894.5C2038 1876.55 2052.55 1862 2070.5 1862 2088.45 1862 2103 1876.55 2103 1894.5 2103 1912.45 2088.45 1927 2070.5 1927 2052.55 1927 2038 1912.45 2038 1894.5Z" fill="#000000" fill-rule="evenodd" fill-opacity="1"/><path d="M1994 2221.5C1994 2203.55 2008.55 2189 2026.5 2189 2044.45 2189 2059 2203.55 2059 2221.5 2059 2239.45 2044.45 2254 2026.5 2254 2008.55 2254 1994 2239.45 1994 2221.5Z" fill="#000000" fill-rule="evenodd" fill-opacity="1"/><text fill="#000000" fill-opacity="1" font-family="Cambria Math,Cambria Math_MSFontService,sans-serif" font-style="normal" font-variant="normal" font-weight="400" font-stretch="normal" font-size="165" text-anchor="start" direction="ltr" writing-mode="lr-tb" unicode-bidi="normal" text-decoration="none" transform="matrix(1 0 0 1 2311.09 2298)">ğ›´</text><text fill="#000000" fill-opacity="1" font-family="Cambria Math,Cambria Math_MSFontService,sans-serif" font-style="normal" font-variant="normal" font-weight="400" font-stretch="normal" font-size="165" text-anchor="start" direction="ltr" writing-mode="lr-tb" unicode-bidi="normal" text-decoration="none" transform="matrix(1 0 0 1 1722.87 1707)">âˆ</text><g><g><g><path d="M2834.12 1385.1 2774.96 1385.1C2769.48 1385.1 2765.05 1389.53 2765.05 1395 2765.05 1400.48 2769.48 1404.91 2774.96 1404.91L2834.12 1404.91C2839.59 1404.91 2844.03 1400.48 2844.03 1395 2844.03 1389.53 2839.59 1385.1 2834.12 1385.1Z" fill="#FFF104" fill-rule="nonzero" fill-opacity="1"/><path d="M2804.54 1438.5C2815.77 1438.5 2825.12 1429.86 2826 1418.66L2783.08 1418.66C2783.96 1429.86 2793.3 1438.5 2804.54 1438.5Z" fill="#FFF104" fill-rule="nonzero" fill-opacity="1"/><path d="M2890.38 1280.88 2890.38 1277.91C2889.53 1231.02 2851.44 1193.37 2804.54 1193.05 2757.64 1193.36 2719.54 1231.02 2718.68 1277.91L2718.68 1280.88C2719 1291.05 2721.03 1301.09 2724.66 1310.6 2728.14 1319.56 2733.2 1327.84 2739.58 1335.03 2747.44 1343.62 2756.06 1360.29 2759.69 1367.69 2760.81 1369.93 2763.1 1371.35 2765.6 1371.35L2843.47 1371.35C2845.97 1371.35 2848.26 1369.93 2849.38 1367.69 2853.01 1360.29 2861.63 1343.62 2869.48 1335.03 2875.87 1327.84 2880.93 1319.56 2884.41 1310.6 2888.04 1301.09 2890.06 1291.05 2890.38 1280.88ZM2870.57 1280.54C2870.27 1288.45 2868.68 1296.26 2865.84 1303.66 2863.22 1310.32 2859.45 1316.47 2854.68 1321.82 2847.11 1330.94 2840.63 1340.91 2835.37 1351.53L2773.69 1351.53C2768.43 1340.91 2761.95 1330.94 2754.38 1321.82 2749.61 1316.47 2745.83 1310.32 2743.22 1303.66 2740.39 1296.26 2738.79 1288.45 2738.49 1280.54L2738.49 1278.07C2739.16 1242.01 2768.47 1213.07 2804.53 1212.86 2840.6 1213.07 2869.91 1242.02 2870.57 1278.07Z" fill="#FFF104" fill-rule="nonzero" fill-opacity="1"/><path d="M2805.21 1179.56C2809.01 1179.56 2812.09 1176.48 2812.09 1172.69L2812.09 1148.62C2812.09 1144.83 2809.01 1141.75 2805.21 1141.75 2801.42 1141.75 2798.34 1144.83 2798.34 1148.62L2798.34 1172.69C2798.34 1176.48 2801.42 1179.56 2805.21 1179.56Z" fill="#FFF104" fill-rule="nonzero" fill-opacity="1"/><path d="M2723.62 1209.81C2726.26 1212.54 2730.61 1212.62 2733.34 1209.98 2736.07 1207.34 2736.15 1202.99 2733.51 1200.26 2733.46 1200.2 2733.4 1200.15 2733.34 1200.09L2716.31 1183.06C2713.58 1180.42 2709.23 1180.5 2706.59 1183.23 2704.02 1185.89 2704.02 1190.12 2706.59 1192.78Z" fill="#FFF104" fill-rule="nonzero" fill-opacity="1"/><path d="M2882.04 1213.12C2883.86 1213.12 2885.61 1212.39 2886.9 1211.1L2903.91 1194.09C2906.49 1191.3 2906.33 1186.95 2903.55 1184.37 2900.91 1181.92 2896.83 1181.92 2894.19 1184.37L2877.19 1201.38C2874.5 1204.07 2874.5 1208.42 2877.19 1211.1 2878.48 1212.39 2880.23 1213.12 2882.05 1213.12Z" fill="#FFF104" fill-rule="nonzero" fill-opacity="1"/><path d="M2698.44 1270.66 2674.38 1270.66C2670.58 1270.66 2667.5 1273.73 2667.5 1277.53 2667.5 1281.33 2670.58 1284.41 2674.38 1284.41L2698.44 1284.41C2702.23 1284.41 2705.31 1281.33 2705.31 1277.53 2705.31 1273.73 2702.23 1270.66 2698.44 1270.66Z" fill="#FFF104" fill-rule="nonzero" fill-opacity="1"/><path d="M2723.62 1345.03 2706.6 1362.05C2703.81 1364.61 2703.63 1368.96 2706.2 1371.76 2708.76 1374.56 2713.11 1374.74 2715.91 1372.17 2716.05 1372.04 2716.18 1371.91 2716.31 1371.77L2733.33 1354.75C2736.06 1352.11 2736.13 1347.76 2733.5 1345.03 2730.86 1342.3 2726.51 1342.22 2723.78 1344.86 2723.72 1344.92 2723.66 1344.97 2723.61 1345.03Z" fill="#FFF104" fill-rule="nonzero" fill-opacity="1"/><path d="M2886.9 1343.73C2884.31 1340.95 2879.96 1340.79 2877.18 1343.37 2874.4 1345.96 2874.24 1350.31 2876.83 1353.09 2876.94 1353.21 2877.06 1353.33 2877.19 1353.45L2894.2 1370.46C2896.93 1373.1 2901.28 1373.02 2903.92 1370.29 2906.49 1367.63 2906.49 1363.4 2903.92 1360.74Z" fill="#FFF104" fill-rule="nonzero" fill-opacity="1"/><path d="M2934.77 1270.42 2910.7 1270.42C2906.91 1270.42 2903.83 1273.5 2903.83 1277.3 2903.83 1281.09 2906.91 1284.17 2910.7 1284.17L2934.77 1284.17C2938.56 1284.17 2941.64 1281.09 2941.64 1277.3 2941.64 1273.5 2938.56 1270.42 2934.77 1270.42Z" fill="#FFF104" fill-rule="nonzero" fill-opacity="1"/></g></g></g></g></g></svg>