<svg width="1855" height="1851" xmlns="http://www.w3.org/2000/svg" xmlns:xlink="http://www.w3.org/1999/xlink" xml:space="preserve" overflow="hidden"><defs><filter id="fx0" x="-10%" y="-10%" width="120%" height="120%" filterUnits="userSpaceOnUse" primitiveUnits="userSpaceOnUse"><feComponentTransfer color-interpolation-filters="sRGB"><feFuncR type="discrete" tableValues="0.000000 0.000000"/><feFuncG type="discrete" tableValues="0.000000 0.000000"/><feFuncB type="discrete" tableValues="0.000000 0.000000"/><feFuncA type="linear" slope="0.349020" intercept="0.000000"/></feComponentTransfer><feGaussianBlur stdDeviation="4.811899 4.811899"/></filter><clipPath id="clip1"><rect x="1.5643" y="1.86483" width="1847.87" height="1847.87"/></clipPath></defs><g transform="translate(18 9)"><g><g clip-path="url(#clip1)" filter="url(#fx0)" transform="translate(-16 -8)"><g><g><rect x="16" y="16.3005" width="1819" height="1819" fill="#FFFFFF" fill-opacity="1"/></g></g></g><rect x="0" y="0" width="1819" height="1819" fill="#FFFFFF" fill-opacity="1"/><rect x="398" y="650" width="260" height="260" fill="#C0504D" fill-opacity="0.301961"/><rect x="683" y="650" width="260" height="260" fill="#8064A2" fill-opacity="0.301961"/><rect x="969" y="650" width="260" height="260" fill="#F79646" fill-opacity="0.301961"/><rect x="398" y="934" width="260" height="260" fill="#4F81BD" fill-opacity="0.301961"/><rect x="683" y="934" width="260" height="260" fill="#4F81BD" fill-opacity="0.301961"/><rect x="969" y="934" width="260" height="260" fill="#8064A2" fill-opacity="0.301961"/><rect x="398" y="1219" width="260" height="260" fill="#9BBB59" fill-opacity="0.301961"/><rect x="683" y="1219" width="260" height="260" fill="#9BBB59" fill-opacity="0.301961"/><rect x="969" y="1219" width="260" height="260" fill="#93CDDD" fill-opacity="0.301961"/><path d="M245.875 219.606 245.875 1593.68 232.125 1593.68 232.125 219.606ZM208.999 257.398 239 205.968 269.001 257.398C270.914 260.678 269.806 264.888 266.527 266.801 263.247 268.714 259.037 267.606 257.124 264.327L233.061 223.077 244.938 223.077 220.876 264.327 220.876 264.327C218.963 267.606 214.753 268.714 211.473 266.801 208.194 264.888 207.086 260.678 208.999 257.398Z" fill="#000000" fill-rule="nonzero" fill-opacity="1"/><path d="M13.6065-6.875 1514.71-6.87464 1514.71 6.87536 13.6065 6.875ZM51.3984 30.001-0.0318648-5.22813e-07 51.3984-30.001C54.6781-31.9141 58.8878-30.8063 60.801-27.5266 62.7142-24.2469 61.6063-20.0372 58.3266-18.124L58.3266-18.124 17.0766 5.93848 17.0766-5.93848 58.3266 18.124C61.6063 20.0372 62.7142 24.2469 60.801 27.5266 58.8878 30.8064 54.6781 31.9142 51.3984 30.001Z" fill="#000000" fill-rule="nonzero" fill-opacity="1" transform="matrix(-1 0 0 1 1750.71 1587)"/><g><g><g><path d="M73.125 188.5C71.422 190.162 69.3934 191.453 67.1666 192.292L67.1666 230.208C67.1666 234.696 70.8042 238.333 75.2916 238.333 79.7791 238.333 83.4166 234.696 83.4166 230.208L83.4166 186.333C87.6238 188.77 92.9389 188.106 96.4166 184.708L102.917 178.208C97.5988 177.622 92.3969 176.253 87.4791 174.146Z" fill="#000000" fill-rule="nonzero" fill-opacity="1" transform="matrix(1 0 0 1 694 338)"/><path d="M249.167 81.7916 223.221 55.8458 247.596 20.3937C248.023 19.7796 247.871 18.9357 247.256 18.509 246.757 18.1618 246.087 18.1905 245.619 18.5792L210.817 46.2312 210.817 36.5625C210.863 35.861 210.332 35.2546 209.63 35.2083 209.575 35.2045 209.518 35.2045 209.462 35.2083 204.252 35.2668 200.042 39.4767 199.983 44.6875L199.983 46.0416C190.342 40.4625 178.317 42.4125 169.704 54.7354 167.267 58.4458 164.965 61.9937 162.689 65.325 159.606 68.673 155.102 70.3357 150.583 69.7937 151.656 72.072 153.613 73.8132 156 74.6145 154.862 76.077 153.725 77.4854 152.56 78.8125 148.436 83.1057 142.695 85.4652 136.744 85.3125 140.15 89.9445 145.216 93.0794 150.881 94.0604 145.41 97.8775 138.943 100.014 132.275 100.208L88.9416 100.208C82.5678 100.132 76.3259 102.024 71.0666 105.625L48.9937 105.625C35.2083 105.625 23.3729 113.912 22.5875 127.292 22.0187 136.337 21.9104 141.294 21.4771 145.573 19.9062 152.912 10.8333 155.485 10.8333 155.485 13.2725 156.957 16.1248 157.594 18.9583 157.3 15.2208 164.612 6.09375 170.625 6.09375 170.625 6.09375 170.625 33.1771 177.26 42.3854 152.696 44.2344 152.994 46.1302 152.7 47.8021 151.856 47.8021 151.856 43.8479 149.825 45.0937 141.023 46.9354 128.158 56.4146 127.833 56.4146 127.833L56.4146 170.625C56.4146 166.137 52.777 162.5 48.2896 162.5 43.8021 162.5 40.1646 166.137 40.1646 170.625L40.1646 230.208C40.1646 234.696 43.8021 238.333 48.2896 238.333 52.777 238.333 56.4146 234.696 56.4146 230.208L56.4146 186.333C60.6217 188.77 65.9368 188.106 69.4146 184.708L86.477 167.646C93.9794 171.337 102.22 173.281 110.581 173.333L145.79 173.333 145.79 230.208C145.79 234.696 149.427 238.333 153.915 238.333 158.402 238.333 162.04 234.696 162.04 230.208L162.04 173.333C165.726 173.254 169.379 172.614 172.873 171.437L172.873 230.208C172.873 234.696 176.51 238.333 180.998 238.333 185.485 238.333 189.123 234.696 189.123 230.208L189.123 158.708C192.688 153.432 194.576 147.201 194.539 140.833L194.539 139.479C194.539 110.365 201.852 89.375 210.789 89.375L213.958 92.625C216.986 95.6458 221.057 97.3905 225.333 97.5L232.375 97.5 232.917 98.0416C237.115 102.305 243.974 102.357 248.237 98.1589 248.276 98.1202 248.315 98.0812 248.354 98.0416L249.167 97.2291C253.232 92.8863 253.232 86.1344 249.167 81.7916Z" fill="#000000" fill-rule="nonzero" fill-opacity="1" transform="matrix(1 0 0 1 694 338)"/></g></g></g><g><g><g><path d="M222.083 100.479C217.75 99.6666 213.417 104 212.062 110.5 210.708 117 213.146 122.687 217.479 123.5 221.812 124.312 226.146 119.979 227.5 113.479 228.854 106.979 226.146 101.292 222.083 100.479Z" fill="#000000" fill-rule="nonzero" fill-opacity="1" transform="matrix(1 0 0 1 1309 1018)"/><path d="M18.6875 151.667C17.0625 149.771 15.9792 147.604 15.1667 145.167 14.625 143.542 14.3542 141.646 14.3542 140.021L14.3542 137.042C14.3542 101.833 49.2916 68.5208 86.125 68.5208L90.4583 68.5208C96.9583 68.5208 109.146 68.7916 114.562 68.7916 116.729 68.7916 121.875 68.7916 124.583 68.5208L130.271 67.7083C112.937 99.1249 119.437 143.271 122.417 158.167L121.333 158.437C112.667 160.333 103.729 161.146 94.7916 161.146L70.4166 161.146C64.7291 166.292 57.9583 170.354 50.9166 173.333L50.9166 182.542C50.9166 190.125 56.875 196.083 64.4583 196.083 72.0416 196.083 78 190.125 78 182.542L78 169.271 94.7916 169.271C104.271 169.271 113.75 168.187 122.958 166.292L126.75 165.479 126.75 182.542C126.75 190.125 132.708 196.083 140.292 196.083 147.875 196.083 153.833 190.125 153.833 182.542L153.833 157.354C155.729 156.542 157.625 155.729 159.25 154.917L159.25 182.271C159.25 189.854 165.208 195.812 172.792 195.812 180.375 195.812 186.333 189.854 186.333 182.271L186.333 148.958 202.312 148.417 235.896 154.917C236.437 154.917 236.979 154.917 237.521 154.917 240.771 154.104 244.021 152.479 246.458 150.042 249.167 147.333 251.062 141.917 252.958 136.5 254.312 132.437 253.229 128.104 250.25 124.854 246.458 120.792 243.208 116.458 240.229 111.854 240.229 98.3125 232.917 85.5833 221.271 78.8125 222.083 69.875 220.187 60.9375 210.708 63.6458 206.646 64.7291 203.125 67.4375 200.687 70.6875L175.771 60.9375C168.187 58.2291 160.333 56.875 152.479 57.1458 148.146 57.1458 144.083 57.4166 139.75 57.9583L124.042 60.125C122.146 60.3958 117.542 60.3958 114.833 60.3958 109.687 60.3958 97.5 60.125 91 60.125L86.6666 60.125C44.6875 60.125 6.77083 96.6875 6.77083 136.771L6.77083 139.75C6.77083 142.187 7.04166 144.625 7.85416 147.062 9.75 153.292 13.8125 158.437 19.2292 161.958L19.2292 182C19.2292 189.583 25.1875 195.542 32.7708 195.542 40.3541 195.542 46.3125 189.583 46.3125 182 46.3125 182 46.3125 182 46.3125 182L46.3125 169.271C69.3333 160.604 79.0833 145.437 79.3541 134.604 79.3541 128.104 75.8333 112.125 52.2708 113.479 34.9375 114.292 20.8542 127.833 19.5 145.167L19.5 151.667ZM240.771 144.354C239.687 145.437 238.604 147.062 236.708 146.792L203.667 140.562C203.396 140.562 203.125 140.562 202.854 140.562L171.979 141.375C174.958 136.5 176.854 131.083 177.396 125.396 181.187 91.5416 152.208 88.0208 156.812 65.8125 162.229 66.0833 167.646 67.1666 172.792 69.0625L196.896 78.5416C195.812 82.0625 195.271 85.5833 195.271 89.1041 195.271 91 196.625 92.625 198.521 92.8958 199.062 92.8958 199.875 92.8958 200.417 92.625 204.75 90.1875 209.354 88.8333 214.5 88.8333 215.854 88.8333 217.208 88.2916 218.562 87.4791 227.229 93.4375 232.646 103.187 232.375 113.75 232.375 117 244.833 131.354 244.833 131.354 247.271 133.521 242.937 141.917 240.771 144.354Z" fill="#000000" fill-rule="nonzero" fill-opacity="1" transform="matrix(1 0 0 1 1309 1018)"/></g></g></g><g><g><g><path d="M211.087 202.069 211.087 180.402 242.91 183.11 221.677 150.448 234.677 153.942 219.375 130.596 228.827 131.787 206.348 99.0979 194.81 115.944 171.844 80.7354 186.523 82.577 151.667 31.0917 116.81 82.55 131.49 80.7083 107.629 117.325 127.806 111.908 94.7916 163.204 143.542 154.023 143.542 187.362C127.508 187.714 112.558 191.208 100.885 198.683 111.719 204.317 123.175 213.985 133.629 230.208L249.167 230.208C240.446 219.131 226.877 209.435 211.087 202.069ZM194.133 116.919 186.225 128.483 175.392 111.827ZM185.412 159.087 169.785 183.11 200.417 180.402 200.417 197.708C186.495 192.446 171.912 189.138 157.083 187.877L157.083 154.023Z" fill="#000000" fill-rule="nonzero" fill-opacity="1" transform="matrix(1 0 0 1 402 332)"/><path d="M87.1812 201.662 86.6666 201.662 86.6666 192.292 100.208 195 90.2958 176.746 97.5 178.75 88.9687 165.777 94.2229 166.427 81.25 148.958 69.3333 166.373 74.5604 165.723 69.9562 172.737 59.8 156.487 70.9583 159.494 57.7687 139.425 65.8937 140.427 46.6104 112.287 27.3271 140.373 35.4521 139.371 22.2625 159.439 33.4208 156.433 15.1667 184.546 40.625 181.458 40.625 208.542C29.3429 213.694 19.2116 221.062 10.8333 230.208L123.825 230.208C111.556 213.01 98.2854 205.102 87.1812 201.662ZM48.75 205.373 48.75 181.458 70.0104 183.896 65 195 78.5416 192.292 78.5416 200.985C68.4317 200.705 58.3502 202.19 48.75 205.373Z" fill="#000000" fill-rule="nonzero" fill-opacity="1" transform="matrix(1 0 0 1 402 332)"/></g></g></g><g><g><g><path d="M120 25C67.5 25 25 67.5 25 120 25 172.5 67.5 215 120 215 172.5 215 215 172.5 215 120 215 67.5 172.5 25 120 25ZM120 205C73.25 205 35 166.75 35 120 35 118.75 35 117.75 35 116.5L38.5 112C39.5 110.75 41 110 42.5 110L51 110C52 110 52.75 110.5 53.25 111.5L62.25 129.5C62.5 130 62.75 130.25 63 130.5L66 132.5C67.75 133.5 70 132.5 70 130.5L70 122.25C70 121 70.5 119.75 71.5 118.75L78 112.25C79 111.25 80.75 111.25 81.75 112.5L89.25 122C89.75 122.5 90.5 123 91.25 123L93 123C94.25 123 95.5 123.5 96.5 124.5L98.5 126.5C99.5 127.5 100.75 128 102 128L102.5 128C104 128 105 127 105 125.5L105 119.5C105 118.5 104.5 117.75 103.5 117.25L101.25 116.25C100.5 115.75 99.75 115 99.75 114L99.75 110C99.75 108.5 100.75 107.5 102.25 107.5L108.5 107.5C109.25 107.5 110 107 110.5 106.5L114 101.25C114.5 100.5 114.75 99.5 114.75 98.5L114.75 93.25C114.75 92.75 114.75 92.5 114.5 92L112.75 84.5C112.5 83.25 113 82.25 114 81.75L115.25 81.25C116.5 80.75 117.75 81 118.5 82 118.5 82 120.75 86.75 122.25 87.75 122.75 88 124.25 88.25 124.75 87.75 126.25 86.25 125.75 81.25 125.25 78 125 76.25 125.75 74.5 127.25 73.25L133.75 68.25C134.5 67.75 134.75 67 134.75 66.25L134.75 65C134.75 63.5 135.75 62.5 137.25 62.5 138.75 62.5 139.75 61.5 139.75 60L139.75 59.5C139.75 58.25 139 57.25 137.75 57L133.25 56C131.5 55.5 130.75 53.5 131.75 52L134.75 48C136.25 46 138.5 45 140.75 45L148.5 45C150.5 45 152.25 43.75 153 42 183.75 55 205 85 205 120 205 166.75 166.75 205 120 205Z" fill="#000000" fill-rule="nonzero" fill-opacity="1" transform="matrix(1 0 0 1.00417 1301 1271)"/><path d="M162.75 171C162.5 170.5 162.25 169.75 161.75 169.25L152 154.5C150.75 152.5 147.5 153.25 147.5 155.75L147.5 157.5C147.5 159 146.5 160 145 160L144 160C143 160 142.25 159.5 141.75 158.5L139.75 154.25C138.75 152.5 136.25 152.5 135.25 154.25L133.25 156.5C132.75 157 132 157.25 131.5 157.25L129.75 157.25C128.5 157.25 127.25 157.75 126.25 158.75L116.25 166.75C114.25 168.5 113.75 171.5 115.25 173.5L121.75 184.25C123.5 187 127.25 187.5 129.5 185.25L134.25 180.5C136 178.75 139 178.5 141 180.25L149.25 187C149.75 187.25 150.25 187.5 150.75 187.5L157.5 187.5C159 187.5 160 186.5 160 185L160 181.5C160 180.5 160.5 179.75 161.5 179.25L163.25 178.5C164.25 178 165 176.75 164.5 175.5L162.75 171Z" fill="#000000" fill-rule="nonzero" fill-opacity="1" transform="matrix(1 0 0 1.00417 1301 1271)"/><path d="M135 137.5 141.25 145.75C142 146.75 143.25 147 144.25 146.5L147.5 145 151.75 146.5C153.25 147 155 145.75 155 144.25 155 143.25 154.5 142.5 153.75 142L143 135.5C142.75 135 142.25 135 141.75 135L135 135 135 137.5Z" fill="#000000" fill-rule="nonzero" fill-opacity="1" transform="matrix(1 0 0 1.00417 1301 1271)"/><path d="M115.75 139.5 117.25 134C117.5 133.25 117.25 132.25 116.5 131.75 115.75 131 114.25 130.75 113.25 131.5L108.25 135.25C106.75 136.25 107 138.75 108.75 139.5L112.25 141.25C113.75 141.75 115.25 141 115.75 139.5Z" fill="#000000" fill-rule="nonzero" fill-opacity="1" transform="matrix(1 0 0 1.00417 1301 1271)"/><path d="M91.75 133.75C90.75 133 89.5 133.25 88.5 134L87.5 135 102.25 147.25C102.5 147.5 102.75 147.5 103 147.75L108.5 149.5C109.5 149.75 110.5 149.5 111 149L112.5 147.5C102 144.5 91.75 133.75 91.75 133.75Z" fill="#000000" fill-rule="nonzero" fill-opacity="1" transform="matrix(1 0 0 1.00417 1301 1271)"/><path d="M127.5 95C134.25 90.5 142 85.25 140 77.5 139.75 77 137.75 77 137.5 77.5 136.5 82 135.5 85.75 125 92.5 124.5 93 126.5 95.5 127.5 95Z" fill="#000000" fill-rule="nonzero" fill-opacity="1" transform="matrix(1 0 0 1.00417 1301 1271)"/></g></g></g><text fill="#000000" fill-opacity="1" font-family="Calibri,Calibri_MSFontService,sans-serif" font-style="italic" font-variant="normal" font-weight="700" font-stretch="normal" font-size="83" text-anchor="start" direction="ltr" writing-mode="lr-tb" unicode-bidi="normal" text-decoration="none" transform="matrix(1 0 0 1 1471.89 1713)">Impact</text><text fill="#000000" fill-opacity="1" font-family="Calibri,Calibri_MSFontService,sans-serif" font-style="italic" font-variant="normal" font-weight="700" font-stretch="normal" font-size="83" text-anchor="start" direction="ltr" writing-mode="lr-tb" unicode-bidi="normal" text-decoration="none" transform="matrix(1 0 0 1 33 319)">Fun</text><g><g><g><path d="M152.942 202.562 106.329 202.562C102.018 202.562 98.5237 206.056 98.5237 210.367 98.5237 214.678 102.018 218.172 106.329 218.172L152.942 218.172C157.253 218.172 160.748 214.678 160.748 210.367 160.748 206.056 157.253 202.562 152.942 202.562Z" fill="#FFF104" fill-rule="nonzero" fill-opacity="1" transform="matrix(1 0 0 1 1439 208)"/><path d="M129.637 244.638C138.489 244.637 145.851 237.83 146.545 229.006L112.726 229.006C113.42 237.831 120.785 244.638 129.637 244.638Z" fill="#FFF104" fill-rule="nonzero" fill-opacity="1" transform="matrix(1 0 0 1 1439 208)"/><path d="M197.272 120.45 197.272 118.11C196.597 81.1665 166.586 51.5006 129.637 51.2525 92.6854 51.4976 62.6703 81.1641 61.9937 118.11L61.9937 120.45C62.2461 128.463 63.8381 136.377 66.7035 143.864 69.4454 150.929 73.4269 157.449 78.4604 163.115 84.6516 169.886 91.4414 183.016 94.3041 188.844 95.1816 190.612 96.9854 191.731 98.9597 191.731L160.306 191.731C162.281 191.73 164.085 190.612 164.965 188.844 167.825 183.018 174.614 169.886 180.806 163.115 185.839 157.449 189.82 150.929 192.562 143.864 195.427 136.376 197.018 128.463 197.272 120.45ZM181.664 120.18C181.429 126.415 180.17 132.569 177.937 138.396 175.874 143.647 172.896 148.491 169.143 152.704 163.181 159.892 158.074 167.748 153.925 176.115L105.332 176.115C101.185 167.747 96.0778 159.891 90.1143 152.704 86.3611 148.492 83.3847 143.647 81.3231 138.396 79.092 132.571 77.8348 126.418 77.6018 120.185L77.6018 118.235C78.1275 89.8272 101.22 67.0263 129.632 66.8606 158.046 67.025 181.139 89.8305 181.659 118.24Z" fill="#FFF104" fill-rule="nonzero" fill-opacity="1" transform="matrix(1 0 0 1 1439 208)"/><path d="M130.168 40.625C133.159 40.625 135.585 38.1999 135.585 35.2083L135.585 16.25C135.585 13.2585 133.159 10.8333 130.168 10.8333 127.176 10.8333 124.751 13.2585 124.751 16.25L124.751 35.2083C124.751 38.1999 127.176 40.625 130.168 40.625Z" fill="#FFF104" fill-rule="nonzero" fill-opacity="1" transform="matrix(1 0 0 1 1439 208)"/><path d="M65.8829 64.4583C67.9613 66.6101 71.3903 66.6697 73.542 64.5916 75.6938 62.5132 75.7534 59.0842 73.6753 56.9324 73.6317 56.8872 73.5873 56.8427 73.542 56.7991L60.125 43.3821C57.9732 41.3037 54.5442 41.3633 52.4658 43.5153 50.4384 45.6143 50.4384 48.9423 52.4658 51.0412Z" fill="#FFF104" fill-rule="nonzero" fill-opacity="1" transform="matrix(1 0 0 1 1439 208)"/><path d="M190.696 67.061C192.133 67.0607 193.51 66.4898 194.526 65.4739L207.929 52.0677C209.964 49.8747 209.836 46.4473 207.643 44.4129 205.563 42.4834 202.348 42.4851 200.27 44.4166L186.875 57.8148C184.76 59.9305 184.761 63.3601 186.876 65.475 187.892 66.4904 189.269 67.0607 190.704 67.061Z" fill="#FFF104" fill-rule="nonzero" fill-opacity="1" transform="matrix(1 0 0 1 1439 208)"/><path d="M46.0416 112.396 27.0833 112.396C24.0918 112.396 21.6667 114.821 21.6667 117.812 21.6667 120.804 24.0918 123.229 27.0833 123.229L46.0416 123.229C49.0333 123.229 51.4583 120.804 51.4583 117.812 51.4583 114.821 49.0333 112.396 46.0416 112.396Z" fill="#FFF104" fill-rule="nonzero" fill-opacity="1" transform="matrix(1 0 0 1 1439 208)"/><path d="M65.8829 170.993 52.4766 184.399C50.274 186.424 50.1296 189.851 52.1541 192.053 54.1783 194.256 57.6049 194.4 59.8076 192.376 59.9178 192.275 60.0237 192.169 60.125 192.059L73.5312 178.652C75.683 176.574 75.7426 173.145 73.6645 170.993 71.5861 168.841 68.1571 168.782 66.0053 170.86 65.9601 170.904 65.9157 170.948 65.8721 170.993Z" fill="#FFF104" fill-rule="nonzero" fill-opacity="1" transform="matrix(1 0 0 1 1439 208)"/><path d="M194.526 169.967C192.489 167.776 189.062 167.651 186.871 169.688 184.68 171.725 184.555 175.152 186.592 177.343 186.683 177.441 186.777 177.535 186.875 177.626L200.278 191.029C202.43 193.108 205.859 193.048 207.938 190.896 209.965 188.797 209.965 185.469 207.938 183.37Z" fill="#FFF104" fill-rule="nonzero" fill-opacity="1" transform="matrix(1 0 0 1 1439 208)"/><path d="M232.239 112.212 213.281 112.212C210.29 112.212 207.864 114.637 207.864 117.628 207.864 120.62 210.29 123.045 213.281 123.045L232.239 123.045C235.231 123.045 237.656 120.62 237.656 117.628 237.656 114.637 235.231 112.212 232.239 112.212Z" fill="#FFF104" fill-rule="nonzero" fill-opacity="1" transform="matrix(1 0 0 1 1439 208)"/></g></g></g><g><g><g><path d="M102.667 106.333 14.6667 106.333 14.6667 47.6667 102.667 47.6667 102.667 106.333ZM106.333 36.6667 11 36.6667C6.96667 36.6667 3.66667 39.9667 3.66667 44L3.66667 110C3.66667 114.033 6.96667 117.333 11 117.333L47.6667 117.333 47.6667 128.333 31.1667 128.333 31.1667 139.333 86.1667 139.333 86.1667 128.333 69.6667 128.333 69.6667 117.333 106.333 117.333C110.367 117.333 113.667 114.033 113.667 110L113.667 44C113.667 39.9667 110.367 36.6667 106.333 36.6667Z" fill="#000000" fill-rule="nonzero" fill-opacity="1" transform="matrix(1 0 0 1.00568 725 701)"/><path d="M165 55 128.333 55 128.333 44 165 44 165 55ZM165 73.3333 128.333 73.3333 128.333 62.3333 165 62.3333 165 73.3333ZM146.667 128.333C143.55 128.333 141.167 125.95 141.167 122.833 141.167 119.717 143.55 117.333 146.667 117.333 149.783 117.333 152.167 119.717 152.167 122.833 152.167 125.95 149.783 128.333 146.667 128.333ZM165 36.6667 128.333 36.6667C124.3 36.6667 121 39.9667 121 44L121 132C121 136.033 124.3 139.333 128.333 139.333L165 139.333C169.033 139.333 172.333 136.033 172.333 132L172.333 44C172.333 39.9667 169.033 36.6667 165 36.6667Z" fill="#000000" fill-rule="nonzero" fill-opacity="1" transform="matrix(1 0 0 1.00568 725 701)"/></g></g></g><g><g><g><path d="M854.25 1312.29C849.3 1312.29 845.175 1308.16 845.381 1303.01 845.381 1298.06 849.506 1293.93 854.456 1293.93 859.406 1293.93 863.531 1298.06 863.531 1303.01 863.531 1305.48 862.5 1307.75 860.85 1309.4 858.994 1311.26 856.725 1312.29 854.25 1312.29ZM845.381 1283.62C840.844 1285.27 837.337 1288.77 835.069 1292.9 832.181 1298.47 831.769 1304.86 834.037 1310.64L843.937 1332.09 850.537 1345.7C851.156 1347.14 852.6 1347.97 854.25 1347.97 855.9 1347.97 857.344 1347.14 857.962 1345.7L864.562 1332.09 874.462 1310.84C875.494 1308.37 875.906 1305.69 875.906 1303.01 875.906 1288.57 861.056 1277.64 845.381 1283.62Z" fill="#000000" fill-rule="nonzero" fill-opacity="1"/><path d="M808.875 1400.15 775.875 1383.65 775.875 1316.41 808.875 1332.91 808.875 1400.15ZM767.625 1383.65 742.875 1396.02 742.875 1328.79 767.625 1316.41 767.625 1383.65ZM881.887 1314.35 876.731 1325.49 883.125 1328.79 883.125 1396.02 858.375 1383.65 858.375 1356.22 850.125 1356.22 850.125 1383.65 817.125 1400.15 817.125 1332.91 831.769 1325.49 826.612 1314.35 813 1321.16 771.75 1300.53 730.5 1321.16 730.5 1416.03 771.75 1395.41 813 1416.03 854.25 1395.41 895.5 1416.03 895.5 1321.16 881.887 1314.35Z" fill="#000000" fill-rule="nonzero" fill-opacity="1"/></g></g></g><text fill="#000000" fill-opacity="1" font-family="Cambria Math,Cambria Math_MSFontService,sans-serif" font-style="normal" font-variant="normal" font-weight="400" font-stretch="normal" font-size="147" text-anchor="start" direction="ltr" writing-mode="lr-tb" unicode-bidi="normal" text-decoration="none" transform="matrix(1 0 0 1 1047.3 847)">ğ›©</text><text fill="#000000" fill-opacity="1" font-family="Cambria Math,Cambria Math_MSFontService,sans-serif" font-style="oblique" font-variant="normal" font-weight="400" font-stretch="normal" font-size="147" text-anchor="start" direction="ltr" writing-mode="lr-tb" unicode-bidi="normal" text-decoration="none" transform="matrix(1 0 0 1 474.56 837)">âˆ®</text><g><g><g><path d="M77.0856 93.7252 79.8022 102.045 78.2741 103.573 69.9543 100.856C69.9543 100.856 69.9543 100.856 69.7845 100.687 67.9168 98.8189 67.9168 95.7627 69.9543 93.895 71.9918 92.0273 75.048 91.8575 77.0856 93.7252ZM20.0355 56.3709 67.9168 104.252 86.5939 110.365 80.4814 91.8575 32.6001 43.8063 20.0355 56.3709Z" fill="#000000" fill-rule="nonzero" fill-opacity="1" transform="matrix(1 0 0 1.00613 446 1267)"/><path d="M9.33856 40.5803C7.98022 42.1084 8.15001 44.4855 9.67814 45.8438L16.4698 52.6355 28.8646 40.2407 22.073 33.449C22.073 33.449 22.073 33.449 22.073 33.449 20.5448 31.9209 17.9979 31.9209 16.6396 33.449L9.67814 40.4105C9.50835 40.4105 9.50835 40.5803 9.33856 40.5803Z" fill="#000000" fill-rule="nonzero" fill-opacity="1" transform="matrix(1 0 0 1.00613 446 1267)"/><path d="M118.854 103.573 89.6502 103.573 92.0273 110.365 118.854 110.365Z" fill="#000000" fill-rule="nonzero" fill-opacity="1" transform="matrix(1 0 0 1.00613 446 1267)"/><path d="M118.854 62.823 58.748 62.823 65.5397 69.6147 118.854 69.6147Z" fill="#000000" fill-rule="nonzero" fill-opacity="1" transform="matrix(1 0 0 1.00613 446 1267)"/><path d="M33.9584 77.4251 33.9584 142.625C33.9584 146.361 37.0146 149.417 40.7501 149.417L132.438 149.417C136.173 149.417 139.229 146.361 139.229 142.625L139.229 30.5626C139.229 26.8271 136.173 23.7709 132.438 23.7709L103.573 23.7709 103.573 20.375C103.573 16.6396 100.517 13.5834 96.7814 13.5834L76.4064 13.5834C72.671 13.5834 69.6147 16.6396 69.6147 20.375L69.6147 23.7709 40.7501 23.7709C37.0146 23.7709 33.9584 26.8271 33.9584 30.5626L33.9584 38.0334 35.8261 39.9011 36.1657 40.2407 44.1459 48.2209 44.1459 33.9584 62.823 33.9584 62.823 44.1459 110.365 44.1459 110.365 33.9584 129.042 33.9584 129.042 139.229 44.1459 139.229 44.1459 87.6127 33.9584 77.4251ZM91.6877 25.4688C91.6877 28.3553 89.4804 30.5626 86.5939 30.5626 83.7074 30.5626 81.5001 28.3553 81.5001 25.4688 81.5001 22.5823 83.7074 20.375 86.5939 20.375 87.9522 20.375 89.3106 20.8844 90.1595 21.9032 91.1783 22.7521 91.6877 24.1105 91.6877 25.4688Z" fill="#000000" fill-rule="nonzero" fill-opacity="1" transform="matrix(1 0 0 1.00613 446 1267)"/><path d="M118.854 83.1981 79.1231 83.1981 85.9147 89.9897 118.854 89.9897Z" fill="#000000" fill-rule="nonzero" fill-opacity="1" transform="matrix(1 0 0 1.00613 446 1267)"/></g></g></g><g><g><g><path d="M84.8438 49.0209 96.1563 49.0209 96.1563 94.2709 84.8438 94.2709Z" fill="#000000" fill-rule="nonzero" fill-opacity="1" transform="matrix(1 0 0 1.00552 436 982)"/><path d="M103.698 26.3959 128.208 26.3959 128.208 41.4792 103.698 41.4792Z" fill="#000000" fill-rule="nonzero" fill-opacity="1" transform="matrix(1 0 0 1.00552 436 982)"/><path d="M143.292 49.0209 103.698 49.0209 103.698 94.2709C103.698 98.4188 107.092 101.813 111.24 101.813L113.125 101.813 113.125 147.063C113.125 151.211 116.519 154.604 120.667 154.604L147.063 154.604C151.211 154.604 154.604 151.211 154.604 147.063L154.604 111.24 143.292 49.0209Z" fill="#000000" fill-rule="nonzero" fill-opacity="1" transform="matrix(1 0 0 1.00552 436 982)"/><path d="M26.3959 111.24 26.3959 147.063C26.3959 151.211 29.7896 154.604 33.9375 154.604L60.3334 154.604C64.4813 154.604 67.8751 151.211 67.8751 147.063L67.8751 101.813 69.7605 101.813C73.9084 101.813 77.3022 98.4188 77.3022 94.2709L77.3022 49.0209 37.7084 49.0209 26.3959 111.24Z" fill="#000000" fill-rule="nonzero" fill-opacity="1" transform="matrix(1 0 0 1.00552 436 982)"/><path d="M52.7917 26.3959 77.3022 26.3959 77.3022 41.4792 52.7917 41.4792Z" fill="#000000" fill-rule="nonzero" fill-opacity="1" transform="matrix(1 0 0 1.00552 436 982)"/></g></g></g><g><g><g><path d="M121.641 113.892C121.16 113.907 120.7 114.092 120.343 114.414 113.423 119.584 106.844 125.194 100.646 131.21 98.1594 133.696 95.9068 135.967 93.8344 138.238 91.5672 133.957 90.3795 129.188 90.3744 124.344 90.0629 108.734 102.463 95.8257 118.072 95.5104 132.615 95.8888 155.682 89.2752 155.682 89.2752 155.682 114.648 153.015 137.247 131.822 149.519 127.675 152.024 122.918 153.34 118.072 153.321 111.417 153.338 104.993 150.878 100.052 146.419 94.8075 152.276 91.2755 157.232 91.2755 159.52L85.4367 159.52C85.4367 156.024 88.3561 151.069 92.8613 145.59 93.3659 144.978 94.4471 143.788 94.4471 143.788L123.713 116.036C123.773 114.913 122.911 113.954 121.788 113.894 121.739 113.891 121.69 113.891 121.641 113.892Z" fill="#000000" fill-rule="nonzero" fill-opacity="1" transform="matrix(1 0 0 1 1008 1270)"/><path d="M30.9418 128.723C32.3014 131.343 34.9035 133.089 37.8437 133.354L70.2812 133.354 70.2812 147.771 37.8437 147.771C29.6266 147.621 22.1096 143.111 18.1109 135.931 14.2803 129.001 14.6135 120.518 18.9759 113.91L37.7176 81.4721 25.3553 74.2638 55.5222 66.1905 63.5955 96.3573 50.4583 88.8066 31.6446 121.424C30.0389 123.524 29.7664 126.355 30.9418 128.723Z" fill="#000000" fill-rule="nonzero" fill-opacity="1" transform="matrix(1 0 0 1 1008 1270)"/><path d="M56.4412 54.3148 71.5246 26.1482C75.4813 19.0298 83.0052 14.6356 91.1493 14.687 99.0675 14.8494 106.243 19.3879 109.783 26.4726L128.525 58.9101 140.887 51.7017 132.813 81.9587 102.719 73.8854 115.838 66.2986 96.934 33.6629C95.9074 31.2256 93.5904 29.5785 90.9511 29.41 88.1717 29.5477 85.656 31.098 84.2834 33.5187L69.1819 61.6853Z" fill="#000000" fill-rule="nonzero" fill-opacity="1" transform="matrix(1 0 0 1 1008 1270)"/></g></g></g><g><g><g><path d="M816.5 1144.72C804.922 1144.72 794.769 1136.53 792.275 1125.31 789.603 1113.91 795.303 1102.33 805.813 1097.34L805.813 1018.97C805.813 1013.09 810.622 1008.28 816.5 1008.28 822.378 1008.28 827.188 1013.09 827.188 1018.97L827.188 1097.34C837.697 1102.33 843.219 1113.91 840.725 1125.31 838.053 1136.53 828.078 1144.54 816.5 1144.72ZM837.875 1091.28 837.875 1018.97C837.875 1007.21 828.256 997.591 816.5 997.591 804.744 997.591 795.125 1007.03 795.125 1018.97L795.125 1091.28C782.835 1100.55 777.847 1116.58 782.656 1131.01 787.466 1145.61 801.181 1155.41 816.5 1155.41 831.819 1155.41 845.534 1145.61 850.344 1131.01 855.153 1116.58 850.166 1100.55 837.875 1091.28Z" fill="#000000" fill-rule="nonzero" fill-opacity="1"/><path d="M820.063 1102.33 820.063 1059.22 812.938 1059.22 812.938 1102.33C804.031 1104.11 797.797 1112.48 798.866 1121.57 799.756 1130.65 807.416 1137.6 816.5 1137.6 825.584 1137.6 833.244 1130.65 834.134 1121.57 835.203 1112.48 828.969 1104.11 820.063 1102.33Z" fill="#000000" fill-rule="nonzero" fill-opacity="1"/></g></g></g><g><g><g><path d="M78.7942 62.5416C74.7038 62.5416 71.3879 59.2257 71.3879 55.1353 71.3879 51.045 74.7038 47.7291 78.7942 47.7291 82.8845 47.7291 86.2004 51.045 86.2004 55.1353 86.2004 59.2257 82.8845 62.5416 78.7942 62.5416ZM78.7942 37.8541C69.25 37.8572 61.5156 45.5969 61.5187 55.1411 61.5195 57.2934 61.9221 59.4263 62.7062 61.4306L70.5568 78.7119 77.3047 92.866C77.7008 93.6842 78.6852 94.026 79.5033 93.6298 79.8366 93.4684 80.1057 93.1993 80.2672 92.866L87.0151 78.7119 94.8657 61.4306C98.3425 52.5423 93.9556 42.5184 85.0672 39.0416 83.0681 38.2595 80.9408 37.8569 78.7942 37.8541Z" fill="#000000" fill-rule="nonzero" fill-opacity="1" transform="matrix(1 0 0 1 1019 995)"/><path d="M115.208 3.29166 42.7916 3.29166C39.1602 3.30251 36.2191 6.24362 36.2083 9.87499L36.2083 148.125C36.2191 151.756 39.1602 154.697 42.7916 154.708L115.208 154.708C118.84 154.697 121.781 151.756 121.791 148.125L121.791 9.87499C121.781 6.24362 118.84 3.30251 115.208 3.29166ZM73.2395 9.87499 84.7603 9.87499C86.1237 9.87499 87.229 10.9803 87.229 12.3437 87.229 13.7072 86.1237 14.8125 84.7603 14.8125L73.2395 14.8125C71.8761 14.8125 70.7707 13.7072 70.7707 12.3437 70.7707 10.9803 71.8761 9.87499 73.2395 9.87499ZM115.208 136.604 42.7916 136.604 42.7916 21.3958 115.208 21.3958Z" fill="#000000" fill-rule="nonzero" fill-opacity="1" transform="matrix(1 0 0 1 1019 995)"/><path d="M54.3124 102.042 103.687 102.042 103.687 106.979 54.3124 106.979Z" fill="#000000" fill-rule="nonzero" fill-opacity="1" transform="matrix(1 0 0 1 1019 995)"/><path d="M54.3124 113.562 103.687 113.562 103.687 118.5 54.3124 118.5Z" fill="#000000" fill-rule="nonzero" fill-opacity="1" transform="matrix(1 0 0 1 1019 995)"/></g></g></g></g></g></svg>