<svg width="798" height="742" xmlns="http://www.w3.org/2000/svg" xmlns:xlink="http://www.w3.org/1999/xlink" xml:space="preserve" overflow="hidden"><g transform="translate(-2575 -660)"><g><path d="M2576 726.754C2576 689.887 2605.89 660 2642.75 660L3305.25 660C3342.11 660 3372 689.887 3372 726.754L3372 1332.25C3372 1369.12 3342.11 1399 3305.25 1399L2642.75 1399C2605.89 1399 2576 1369.12 2576 1332.25Z" fill="#D9D9D9" fill-rule="evenodd" fill-opacity="0.501961"/><g><g><g><path d="M270 56.25C151.875 56.25 56.25 151.875 56.25 270 56.25 388.125 151.875 483.75 270 483.75 388.125 483.75 483.75 388.125 483.75 270 483.75 151.875 388.125 56.25 270 56.25ZM270 461.25C164.813 461.25 78.75 375.188 78.75 270 78.75 164.813 164.813 78.75 270 78.75 297.563 78.75 323.438 84.375 347.063 95.0625L329.063 109.688C326.813 111.375 324.563 112.5 321.75 112.5L311.063 112.5C309.938 112.5 308.25 112.5 307.125 111.938 307.125 111.938 279.563 95.625 263.813 95.625 248.625 95.625 223.875 105.188 213.188 112.5 196.875 123.188 214.313 128.25 218.25 129.375 218.813 129.375 219.375 129.375 219.375 129.375L235.125 129.375C239.063 129.375 242.438 127.688 244.688 124.313L250.875 114.75C252 113.063 253.688 112.5 255.375 112.5L264.375 112.5 252.563 132.188C249.75 137.25 244.125 140.625 237.938 140.625L222.75 140.625C220.5 140.625 218.25 141.188 216.563 142.313L202.5 151.875 191.25 151.875C187.875 151.875 185.625 154.125 185.625 157.5L185.625 163.125C185.625 166.5 183.375 168.75 180 168.75L174.938 168.75C171 168.75 167.625 170.438 165.375 173.813L158.625 184.5C158.063 185.625 157.5 186.75 157.5 187.875L157.5 191.25C157.5 194.625 159.75 196.875 163.125 196.875L183.375 196.875C185.063 196.875 186.188 196.313 187.313 195.188L204.75 177.75C207 175.5 209.813 174.375 212.625 174.375L214.875 174.375C217.688 174.375 219.938 176.063 220.5 178.875L223.875 192.938C224.438 195.188 226.688 197.438 229.5 197.438L230.625 197.438C234 197.438 236.25 195.188 236.25 191.813L236.25 177.188C236.25 175.5 236.813 174.375 237.938 173.25L241.875 168.75 246.375 181.688C246.938 183.938 249.188 185.625 251.438 185.625L256.5 185.625C258.188 185.625 259.312 185.063 260.438 183.938L262.688 181.688C263.813 180.562 264.938 180 266.625 180L270 180C273.375 180 275.625 182.25 275.625 185.625L275.625 191.25C275.625 194.625 277.875 196.875 281.25 196.875L301.5 196.875C305.438 196.875 308.25 200.813 306.563 204.188L304.875 209.25C303.75 212.063 301.5 213.75 298.688 213.188L271.688 208.688C270.562 208.688 268.875 208.688 267.75 208.688L244.688 213.188C242.438 213.75 240.75 213.188 238.5 212.625 231.188 209.813 210.938 202.5 202.5 202.5 135.563 202.5 135 247.5 135 264.375 135 286.875 147.938 303.75 168.75 303.75 193.5 303.75 225 302.625 225 348.75L225 383.625C225 390.375 227.25 396.563 231.75 401.625L248.063 421.313C251.438 425.25 255.938 427.5 261 427.5L274.5 427.5C279 427.5 283.5 425.813 286.313 422.438L299.813 408.938C302.625 406.125 304.313 403.313 306 399.938L317.25 376.875C318.938 372.938 320.063 368.438 320.063 364.5L320.063 338.625C320.063 334.125 321.75 329.625 325.125 326.813L354.938 297C357.188 294.75 357.188 290.25 354.375 288.563 354.375 288.563 320.625 269.438 302.063 233.438 300.375 229.5 302.625 225 307.125 225L309.375 225 341.438 266.625C345.375 271.688 352.688 272.25 357.75 268.313L376.313 252.563C379.125 250.313 379.125 245.25 375.75 243.563L358.875 233.438C356.625 231.75 355.5 228.938 356.625 226.125L357.188 225C358.875 222.188 362.25 221.063 365.063 222.75L385.313 235.125C387 236.25 389.25 236.813 390.938 236.813L397.125 236.813C401.625 236.813 405.563 239.625 407.25 243.563L423.563 280.688C425.25 284.625 429.188 287.438 433.688 287.438 438.75 287.438 443.25 282.938 443.25 277.875L443.25 262.125C443.25 260.438 443.813 258.75 445.5 257.625L458.438 247.5C459.563 254.813 460.125 262.688 460.125 270.562 461.25 375.188 375.188 461.25 270 461.25Z" fill="#000000" fill-rule="nonzero" fill-opacity="1" transform="matrix(1 0 0 1.00185 2638 856)"/><path d="M168.75 151.875 168.75 157.5 174.375 157.5C177.75 157.5 180 155.25 180 151.875L180 146.25 185.625 146.25 185.625 137.25C185.625 135.563 185.063 134.438 183.938 133.313L178.313 127.688C176.063 125.438 172.688 125.438 170.438 127.688L161.438 136.688C159.188 138.938 159.188 142.313 161.438 144.563L168.75 151.875Z" fill="#000000" fill-rule="nonzero" fill-opacity="1" transform="matrix(1 0 0 1.00185 2638 856)"/></g></g></g><g><g><g><path d="M110.053 137.219 110.053 88.9787 105.037 88.9787 105.037 137.219C98.2625 138.605 93.8942 145.219 95.2796 151.993 96.6648 158.767 103.279 163.136 110.053 161.75 116.827 160.365 121.196 153.75 119.81 146.977 118.806 142.064 114.966 138.224 110.053 137.219Z" fill="#404040" fill-rule="nonzero" fill-opacity="1" transform="matrix(1.00465 0 0 1 3077 735)"/><path d="M202.794 179.167 115.271 26.875C112.81 22.5831 107.336 21.0988 103.044 23.5598 101.664 24.351 100.52 25.4952 99.7287 26.875L12.2057 179.167C9.73196 183.452 11.2 188.93 15.4847 191.404 16.8439 192.189 18.3853 192.603 19.9547 192.604L195.045 192.604C199.993 192.599 204 188.584 203.995 183.637 203.993 182.067 203.579 180.526 202.794 179.167ZM126.111 153.703C124.323 161.826 117.466 167.848 109.18 168.574L107.5 168.574C96.9125 168.552 88.3469 159.951 88.3689 149.363 88.3834 142.37 92.2046 135.939 98.3402 132.583L98.3402 78.5871C98.09 73.5343 101.983 69.2357 107.036 68.9855 112.089 68.7356 116.387 72.6289 116.638 77.6814 116.653 77.9833 116.653 78.2854 116.638 78.5871L116.638 132.695C124.145 136.785 128.016 145.369 126.111 153.703Z" fill="#404040" fill-rule="nonzero" fill-opacity="1" transform="matrix(1.00465 0 0 1 3077 735)"/></g></g></g></g></g></svg>