<svg width="844" height="752" xmlns="http://www.w3.org/2000/svg" xmlns:xlink="http://www.w3.org/1999/xlink" xml:space="preserve" overflow="hidden"><g transform="translate(-375 -641)"><g><path d="M385 712.754C385 675.887 414.887 646 451.754 646L1114.25 646C1151.11 646 1181 675.887 1181 712.754L1181 1318.25C1181 1355.12 1151.11 1385 1114.25 1385L451.754 1385C414.887 1385 385 1355.12 385 1318.25Z" fill="#D9D9D9" fill-rule="evenodd" fill-opacity="0.501961"/><path d="M551.083 861.575 551.084 1202.1 541.917 1202.1 541.917 861.575ZM526.499 886.766 546.5 852.479 566.501 886.766C567.776 888.952 567.038 891.758 564.851 893.034 562.665 894.309 559.858 893.571 558.583 891.384L542.541 863.884 550.459 863.884 534.417 891.384C533.142 893.571 530.336 894.309 528.149 893.034 525.963 891.759 525.224 888.952 526.499 886.766Z" fill="#000000" fill-rule="nonzero" fill-opacity="1"/><path d="M641.563 967.614C701.7 909.694 781.574 895.056 819.966 934.918 858.359 974.78 840.732 1054.05 780.595 1111.97 720.458 1169.89 640.584 1184.53 602.192 1144.66 563.799 1104.8 581.426 1025.53 641.563 967.614Z" fill="#A6A6A6" fill-rule="evenodd" fill-opacity="0.701961"/><g><g><g><path d="M190.108 65.0417 201.722 65.0417C198.325 60.6734 194.301 56.8304 189.782 53.6362 187.063 44.5529 178.706 38.33 169.225 38.3281 154.195 38.3281 139.654 55.8662 133.405 67.4808 103.121 73.7766 76.2888 91.1785 58.1891 116.262L21.8122 152.685C20.6063 153.892 20.6072 155.849 21.8143 157.055 22.3931 157.633 23.1776 157.958 23.9957 157.958L36.284 157.958 36.284 170.247C36.2851 171.953 37.6694 173.335 39.3755 173.334 40.1937 173.334 40.9781 173.008 41.557 172.43L71.151 142.836C81.254 147.922 92.3639 150.691 103.672 150.943L103.672 167.204C101.106 167.204 99.026 169.284 99.026 171.849 99.026 174.415 101.106 176.495 103.672 176.495L106.459 176.495 114.357 184.393C116.062 186.189 118.899 186.264 120.695 184.559 120.752 184.505 120.808 184.45 120.861 184.393 122.657 182.689 122.732 179.851 121.027 178.055 120.974 177.998 120.918 177.943 120.861 177.889L119.468 176.495 124.578 176.495C127.144 176.495 129.224 174.415 129.224 171.849 129.224 169.284 127.144 167.204 124.578 167.204L112.963 167.204 112.963 150.618C116.088 150.321 119.191 149.832 122.255 149.155L122.255 157.958C119.689 157.958 117.609 160.038 117.609 162.604L124.578 162.604C129.71 162.615 133.861 166.783 133.851 171.915 133.849 173.103 133.618 174.279 133.173 175.38 134.019 176.098 135.084 176.508 136.193 176.542 137.418 176.524 138.587 176.023 139.445 175.148 141.241 173.444 141.315 170.606 139.611 168.81 139.557 168.753 139.502 168.698 139.445 168.644L138.051 167.25 143.161 167.25C145.727 167.25 147.807 165.17 147.807 162.604 147.807 160.038 145.727 157.958 143.161 157.958L131.547 157.958 131.547 146.483C161.086 135.843 181.169 108.29 182.256 76.9118 186.148 73.9645 188.918 69.777 190.108 65.0417Z" fill="#000000" fill-rule="nonzero" fill-opacity="1" transform="matrix(1 0 0 1.00448 912 1009)"/></g></g></g><path d="M9.07458-4.58332 356.807-4.58297 356.807 4.58369 9.07457 4.58334ZM34.2656 20.0007-0.0212426 7.75035e-08 34.2656-20.0006 34.2656-20.0006C36.4521-21.2761 39.2586-20.5375 40.534-18.351 41.8095-16.1645 41.0709-13.3581 38.8844-12.0826L38.8844-12.0826 11.3844 3.959 11.3844-3.95898 38.8844 12.0827C41.0709 13.3582 41.8094 16.1646 40.534 18.3511 39.2585 20.5376 36.4521 21.2761 34.2656 20.0007Z" fill="#000000" fill-rule="nonzero" fill-opacity="1" transform="matrix(-1 0 0 1 903.307 1196.5)"/><text fill="#000000" fill-opacity="1" font-family="Calibri,Calibri_MSFontService,sans-serif" font-style="normal" font-variant="normal" font-weight="400" font-stretch="normal" font-size="73" text-anchor="start" direction="ltr" writing-mode="lr-tb" unicode-bidi="normal" text-decoration="none" transform="matrix(1 0 0 1 532.044 1326)">Niche axis 1</text><text fill="#000000" fill-opacity="1" font-family="Calibri,Calibri_MSFontService,sans-serif" font-style="normal" font-variant="normal" font-weight="400" font-stretch="normal" font-size="73" text-anchor="start" direction="ltr" writing-mode="lr-tb" unicode-bidi="normal" text-decoration="none" transform="matrix(-1.83697e-16 -1 1 -1.83697e-16 469.963 1211)">Niche axis 2</text><path d="M656.721 987.702C698.482 947.481 756.277 939.734 785.811 970.398 815.345 1001.06 805.434 1058.53 763.673 1098.75 721.913 1138.97 664.117 1146.72 634.583 1116.05 605.049 1085.39 614.96 1027.92 656.721 987.702Z" fill="#7F7F7F" fill-rule="evenodd" fill-opacity="0.501961"/><path d="M679.943 1011.66C706.356 986.222 741.416 979.77 758.252 997.25 775.088 1014.73 767.324 1049.52 740.911 1074.96 714.498 1100.4 679.438 1106.85 662.602 1089.37 645.766 1071.89 653.53 1037.1 679.943 1011.66Z" fill="#000000" fill-rule="evenodd" fill-opacity="0.501961"/><rect x="939" y="912" width="45.0001" height="118" fill="#A6A6A6" fill-opacity="0.701961"/><rect x="939" y="912" width="45.0001" height="38.0002" fill="#000000" fill-opacity="0.501961"/><rect x="939" y="912" width="45.0001" height="78.0001" fill="#7F7F7F" fill-opacity="0.501961"/><text fill="#000000" fill-opacity="1" font-family="Calibri,Calibri_MSFontService,sans-serif" font-style="normal" font-variant="normal" font-weight="400" font-stretch="normal" font-size="73" text-anchor="start" direction="ltr" writing-mode="lr-tb" unicode-bidi="normal" text-decoration="none" transform="matrix(1 0 0 1 894.868 883)">Density</text></g></g></svg>